%TF.GenerationSoftware,KiCad,Pcbnew,9.0.0*%
%TF.CreationDate,2025-10-13T23:53:41-05:00*%
%TF.ProjectId,PS-PowerSelectorPCB,50532d50-6f77-4657-9253-656c6563746f,rev?*%
%TF.SameCoordinates,Original*%
%TF.FileFunction,Soldermask,Top*%
%TF.FilePolarity,Negative*%
%FSLAX46Y46*%
G04 Gerber Fmt 4.6, Leading zero omitted, Abs format (unit mm)*
G04 Created by KiCad (PCBNEW 9.0.0) date 2025-10-13 23:53:41*
%MOMM*%
%LPD*%
G01*
G04 APERTURE LIST*
G04 Aperture macros list*
%AMRoundRect*
0 Rectangle with rounded corners*
0 $1 Rounding radius*
0 $2 $3 $4 $5 $6 $7 $8 $9 X,Y pos of 4 corners*
0 Add a 4 corners polygon primitive as box body*
4,1,4,$2,$3,$4,$5,$6,$7,$8,$9,$2,$3,0*
0 Add four circle primitives for the rounded corners*
1,1,$1+$1,$2,$3*
1,1,$1+$1,$4,$5*
1,1,$1+$1,$6,$7*
1,1,$1+$1,$8,$9*
0 Add four rect primitives between the rounded corners*
20,1,$1+$1,$2,$3,$4,$5,0*
20,1,$1+$1,$4,$5,$6,$7,0*
20,1,$1+$1,$6,$7,$8,$9,0*
20,1,$1+$1,$8,$9,$2,$3,0*%
%AMFreePoly0*
4,1,22,0.945671,0.830970,1.026777,0.776777,1.080970,0.695671,1.100000,0.600000,1.100000,-0.600000,1.080970,-0.695671,1.026777,-0.776777,0.945671,-0.830970,0.850000,-0.850000,-0.850000,-0.850000,-0.945671,-0.830970,-1.026777,-0.776777,-1.080970,-0.695671,-1.100000,-0.600000,-1.100000,0.200000,-1.080970,0.295671,-1.026777,0.376777,-0.626777,0.776777,-0.545671,0.830970,-0.450000,0.850000,
0.850000,0.850000,0.945671,0.830970,0.945671,0.830970,$1*%
G04 Aperture macros list end*
%ADD10C,0.000000*%
%ADD11RoundRect,0.225000X0.225000X0.375000X-0.225000X0.375000X-0.225000X-0.375000X0.225000X-0.375000X0*%
%ADD12R,3.000000X3.000000*%
%ADD13C,3.000000*%
%ADD14RoundRect,1.500000X-1.500000X1.500000X-1.500000X-1.500000X1.500000X-1.500000X1.500000X1.500000X0*%
%ADD15C,6.000000*%
%ADD16RoundRect,1.500000X-1.500000X-1.500000X1.500000X-1.500000X1.500000X1.500000X-1.500000X1.500000X0*%
%ADD17C,2.604000*%
%ADD18RoundRect,0.237500X-0.250000X-0.237500X0.250000X-0.237500X0.250000X0.237500X-0.250000X0.237500X0*%
%ADD19RoundRect,0.250000X0.850000X0.600000X-0.850000X0.600000X-0.850000X-0.600000X0.850000X-0.600000X0*%
%ADD20O,2.200000X1.700000*%
%ADD21RoundRect,0.237500X-0.287500X-0.237500X0.287500X-0.237500X0.287500X0.237500X-0.287500X0.237500X0*%
%ADD22FreePoly0,180.000000*%
%ADD23C,2.775000*%
%ADD24R,2.775000X2.775000*%
G04 APERTURE END LIST*
D10*
%TO.C,LOGO1*%
G36*
X99500794Y-124946905D02*
G01*
X99525993Y-126080833D01*
X100546528Y-126094476D01*
X101567064Y-126108119D01*
X101567064Y-126359059D01*
X101567064Y-126610000D01*
X100230751Y-126610000D01*
X98894438Y-126610000D01*
X98907834Y-125211488D01*
X98921231Y-123812976D01*
X99198413Y-123812976D01*
X99475596Y-123812976D01*
X99500794Y-124946905D01*
G37*
G36*
X112365873Y-124460198D02*
G01*
X112365873Y-124686984D01*
X111584722Y-124686984D01*
X110803571Y-124686984D01*
X110803571Y-124938968D01*
X110803571Y-125190952D01*
X111584722Y-125190952D01*
X112365873Y-125190952D01*
X112365873Y-125896508D01*
X112365873Y-126602063D01*
X111357936Y-126602063D01*
X110350000Y-126602063D01*
X110350000Y-126375278D01*
X110350000Y-126148492D01*
X111131151Y-126148492D01*
X111912301Y-126148492D01*
X111912301Y-125896508D01*
X111912301Y-125644524D01*
X111131151Y-125644524D01*
X110350000Y-125644524D01*
X110350000Y-124938968D01*
X110350000Y-124233413D01*
X111357936Y-124233413D01*
X112365873Y-124233413D01*
X112365873Y-124460198D01*
G37*
G36*
X105376828Y-123796870D02*
G01*
X105573612Y-123812976D01*
X105587008Y-125211488D01*
X105600404Y-126610000D01*
X105273678Y-126610000D01*
X104946952Y-126610000D01*
X104932703Y-126043036D01*
X104918453Y-125476071D01*
X103823982Y-125462494D01*
X102729510Y-125448916D01*
X102715251Y-126016859D01*
X102700993Y-126584801D01*
X102385211Y-126599826D01*
X102069429Y-126614851D01*
X102082830Y-125213914D01*
X102096231Y-123812976D01*
X102352691Y-123798025D01*
X102551790Y-123802861D01*
X102660363Y-123845420D01*
X102665728Y-123851244D01*
X102691275Y-123928573D01*
X102714051Y-124081243D01*
X102730876Y-124283801D01*
X102736847Y-124420561D01*
X102751389Y-124921706D01*
X103834921Y-124921706D01*
X104918453Y-124921706D01*
X104932752Y-124380474D01*
X104942061Y-124122555D01*
X104961771Y-123949779D01*
X105003781Y-123846509D01*
X105079990Y-123797105D01*
X105202298Y-123785930D01*
X105376828Y-123796870D01*
G37*
G36*
X107606389Y-123792880D02*
G01*
X107929517Y-123796724D01*
X108397725Y-123805193D01*
X108775655Y-123817869D01*
X109073823Y-123838856D01*
X109302744Y-123872257D01*
X109472934Y-123922178D01*
X109594908Y-123992721D01*
X109679182Y-124087992D01*
X109736272Y-124212094D01*
X109776693Y-124369132D01*
X109805352Y-124528856D01*
X109815781Y-124731314D01*
X109792188Y-124953805D01*
X109741695Y-125162348D01*
X109671422Y-125322966D01*
X109627371Y-125378160D01*
X109563130Y-125444076D01*
X109563297Y-125496382D01*
X109630288Y-125576572D01*
X109639499Y-125586385D01*
X109695563Y-125661351D01*
X109732230Y-125758775D01*
X109755316Y-125903634D01*
X109770634Y-126120905D01*
X109772438Y-126157429D01*
X109794076Y-126610000D01*
X109460332Y-126610000D01*
X109126588Y-126610000D01*
X109126588Y-126314415D01*
X109114342Y-126107713D01*
X109071898Y-125964351D01*
X109022136Y-125886042D01*
X108917685Y-125753254D01*
X107963803Y-125753254D01*
X107009921Y-125753254D01*
X107009921Y-126181627D01*
X107009921Y-126610000D01*
X106682342Y-126610000D01*
X106354762Y-126610000D01*
X106354762Y-125225047D01*
X106354762Y-124762116D01*
X106354762Y-124342143D01*
X107009921Y-124342143D01*
X107009921Y-124762116D01*
X107014188Y-124959653D01*
X107025542Y-125117374D01*
X107041816Y-125209012D01*
X107047719Y-125220099D01*
X107107819Y-125231199D01*
X107252244Y-125239204D01*
X107464564Y-125243761D01*
X107728345Y-125244519D01*
X108027158Y-125241126D01*
X108028719Y-125241098D01*
X108365482Y-125234007D01*
X108615965Y-125225610D01*
X108794681Y-125214404D01*
X108916141Y-125198885D01*
X108994859Y-125177551D01*
X109045349Y-125148897D01*
X109061853Y-125134093D01*
X109127195Y-125015962D01*
X109151407Y-124824497D01*
X109151786Y-124789462D01*
X109141791Y-124620129D01*
X109103410Y-124513196D01*
X109032810Y-124438484D01*
X108982720Y-124404546D01*
X108918423Y-124379601D01*
X108824814Y-124362287D01*
X108686788Y-124351247D01*
X108489240Y-124345123D01*
X108217064Y-124342554D01*
X107961878Y-124342143D01*
X107009921Y-124342143D01*
X106354762Y-124342143D01*
X106354762Y-123840095D01*
X106480608Y-123808509D01*
X106563764Y-123800726D01*
X106732805Y-123795150D01*
X106972847Y-123791903D01*
X107269004Y-123791106D01*
X107606389Y-123792880D01*
G37*
%TD*%
D11*
%TO.C,D6*%
X104650000Y-99200000D03*
X107950000Y-99200000D03*
%TD*%
%TO.C,D7*%
X104650000Y-101700000D03*
X107950000Y-101700000D03*
%TD*%
D12*
%TO.C,J4*%
X115900000Y-93600000D03*
D13*
X115900000Y-98600000D03*
%TD*%
D14*
%TO.C,J3*%
X114500000Y-108100000D03*
D15*
X114500000Y-115300000D03*
%TD*%
%TO.C,J1*%
X92300000Y-90050000D03*
D16*
X85100000Y-90050000D03*
%TD*%
D13*
%TO.C,J2*%
X106950000Y-87750000D03*
D12*
X101950000Y-87750000D03*
%TD*%
D17*
%TO.C,F1*%
X100260000Y-101300000D03*
X90340000Y-101300000D03*
X100260000Y-97900000D03*
X90340000Y-97900000D03*
%TD*%
D18*
%TO.C,R1*%
X84387500Y-107625000D03*
X86212500Y-107625000D03*
%TD*%
%TO.C,R4*%
X100837500Y-107675000D03*
X102662500Y-107675000D03*
%TD*%
D19*
%TO.C,J5*%
X78270000Y-105000000D03*
D20*
X78270000Y-107500000D03*
X78270000Y-110000000D03*
X78270000Y-112500000D03*
X78270000Y-115000000D03*
X78270000Y-117500000D03*
%TD*%
D21*
%TO.C,D1*%
X84425000Y-106050000D03*
X86175000Y-106050000D03*
%TD*%
D18*
%TO.C,R5*%
X89862500Y-107625000D03*
X91687500Y-107625000D03*
%TD*%
D21*
%TO.C,D3*%
X95400000Y-106050000D03*
X97150000Y-106050000D03*
%TD*%
D18*
%TO.C,R3*%
X95337500Y-107625000D03*
X97162500Y-107625000D03*
%TD*%
D21*
%TO.C,D4*%
X100887500Y-106100000D03*
X102637500Y-106100000D03*
%TD*%
D22*
%TO.C,J6*%
X78100000Y-96850000D03*
D20*
X78100000Y-99350000D03*
%TD*%
D21*
%TO.C,D5*%
X89912500Y-106050000D03*
X91662500Y-106050000D03*
%TD*%
D18*
%TO.C,R2*%
X106312500Y-107625000D03*
X108137500Y-107625000D03*
%TD*%
D21*
%TO.C,D2*%
X106375000Y-106050000D03*
X108125000Y-106050000D03*
%TD*%
D23*
%TO.C,SW1*%
X88000000Y-115395000D03*
X88000000Y-118575000D03*
X103750000Y-115395000D03*
X103750000Y-118575000D03*
D24*
X91175000Y-114570000D03*
D23*
X95875000Y-114570000D03*
X100575000Y-114570000D03*
X91175000Y-119400000D03*
X95875000Y-119400000D03*
X100575000Y-119400000D03*
%TD*%
M02*
