M48
; DRILL file {KiCad 9.0.0} date 2025-10-13T23:42:02-0500
; FORMAT={-:-/ absolute / inch / decimal}
; #@! TF.CreationDate,2025-10-13T23:42:02-05:00
; #@! TF.GenerationSoftware,Kicad,Pcbnew,9.0.0
; #@! TF.FileFunction,Plated,1,2,PTH
FMAT,2
INCH
; #@! TA.AperFunction,Plated,PTH,ViaDrill
T1C0.0118
; #@! TA.AperFunction,Plated,PTH,ViaDrill
T2C0.0236
; #@! TA.AperFunction,Plated,PTH,ComponentDrill
T3C0.0472
; #@! TA.AperFunction,Plated,PTH,ComponentDrill
T4C0.0630
; #@! TA.AperFunction,Plated,PTH,ComponentDrill
T5C0.0709
; #@! TA.AperFunction,Plated,PTH,ComponentDrill
T6C0.0728
; #@! TA.AperFunction,Plated,PTH,ComponentDrill
T7C0.1772
%
G90
G05
T1
X3.5906Y-4.3917
X3.7756Y-4.3917
X4.1299Y-3.9508
T2
X3.3952Y-4.3115
X4.2087Y-4.312
T3
X3.0748Y-3.813
X3.0748Y-3.9114
X3.0815Y-4.1339
X3.0815Y-4.2323
X3.0815Y-4.3307
X3.0815Y-4.4291
X3.0815Y-4.5276
X3.0815Y-4.626
T4
X3.5567Y-3.8543
X3.5567Y-3.9882
X3.9472Y-3.8543
X3.9472Y-3.9882
T5
X4.0138Y-3.4547
X4.2106Y-3.4547
X4.563Y-3.685
X4.563Y-3.8819
T6
X3.4646Y-4.5431
X3.4646Y-4.6683
X3.5896Y-4.5106
X3.5896Y-4.7008
X3.7746Y-4.5106
X3.7746Y-4.7008
X3.9596Y-4.5106
X3.9596Y-4.7008
X4.0846Y-4.5431
X4.0846Y-4.6683
T7
X3.3504Y-3.5453
X3.6339Y-3.5453
X4.5079Y-4.2559
X4.5079Y-4.5394
M30
