%TF.GenerationSoftware,KiCad,Pcbnew,9.0.0*%
%TF.CreationDate,2025-10-13T23:53:41-05:00*%
%TF.ProjectId,PS-PowerSelectorPCB,50532d50-6f77-4657-9253-656c6563746f,rev?*%
%TF.SameCoordinates,Original*%
%TF.FileFunction,Copper,L2,Bot*%
%TF.FilePolarity,Positive*%
%FSLAX46Y46*%
G04 Gerber Fmt 4.6, Leading zero omitted, Abs format (unit mm)*
G04 Created by KiCad (PCBNEW 9.0.0) date 2025-10-13 23:53:41*
%MOMM*%
%LPD*%
G01*
G04 APERTURE LIST*
G04 Aperture macros list*
%AMRoundRect*
0 Rectangle with rounded corners*
0 $1 Rounding radius*
0 $2 $3 $4 $5 $6 $7 $8 $9 X,Y pos of 4 corners*
0 Add a 4 corners polygon primitive as box body*
4,1,4,$2,$3,$4,$5,$6,$7,$8,$9,$2,$3,0*
0 Add four circle primitives for the rounded corners*
1,1,$1+$1,$2,$3*
1,1,$1+$1,$4,$5*
1,1,$1+$1,$6,$7*
1,1,$1+$1,$8,$9*
0 Add four rect primitives between the rounded corners*
20,1,$1+$1,$2,$3,$4,$5,0*
20,1,$1+$1,$4,$5,$6,$7,0*
20,1,$1+$1,$6,$7,$8,$9,0*
20,1,$1+$1,$8,$9,$2,$3,0*%
%AMFreePoly0*
4,1,22,0.945671,0.830970,1.026777,0.776777,1.080970,0.695671,1.100000,0.600000,1.100000,-0.600000,1.080970,-0.695671,1.026777,-0.776777,0.945671,-0.830970,0.850000,-0.850000,-0.850000,-0.850000,-0.945671,-0.830970,-1.026777,-0.776777,-1.080970,-0.695671,-1.100000,-0.600000,-1.100000,0.200000,-1.080970,0.295671,-1.026777,0.376777,-0.626777,0.776777,-0.545671,0.830970,-0.450000,0.850000,
0.850000,0.850000,0.945671,0.830970,0.945671,0.830970,$1*%
G04 Aperture macros list end*
%TA.AperFunction,ComponentPad*%
%ADD10R,3.000000X3.000000*%
%TD*%
%TA.AperFunction,ComponentPad*%
%ADD11C,3.000000*%
%TD*%
%TA.AperFunction,ComponentPad*%
%ADD12RoundRect,1.500000X-1.500000X1.500000X-1.500000X-1.500000X1.500000X-1.500000X1.500000X1.500000X0*%
%TD*%
%TA.AperFunction,ComponentPad*%
%ADD13C,6.000000*%
%TD*%
%TA.AperFunction,ComponentPad*%
%ADD14RoundRect,1.500000X-1.500000X-1.500000X1.500000X-1.500000X1.500000X1.500000X-1.500000X1.500000X0*%
%TD*%
%TA.AperFunction,ComponentPad*%
%ADD15C,2.400000*%
%TD*%
%TA.AperFunction,ComponentPad*%
%ADD16RoundRect,0.250000X0.850000X0.600000X-0.850000X0.600000X-0.850000X-0.600000X0.850000X-0.600000X0*%
%TD*%
%TA.AperFunction,ComponentPad*%
%ADD17O,2.200000X1.700000*%
%TD*%
%TA.AperFunction,ComponentPad*%
%ADD18FreePoly0,180.000000*%
%TD*%
%TA.AperFunction,ComponentPad*%
%ADD19C,2.775000*%
%TD*%
%TA.AperFunction,ComponentPad*%
%ADD20R,2.775000X2.775000*%
%TD*%
%TA.AperFunction,SMDPad,CuDef*%
%ADD21RoundRect,0.250001X1.074999X-0.462499X1.074999X0.462499X-1.074999X0.462499X-1.074999X-0.462499X0*%
%TD*%
%TA.AperFunction,ViaPad*%
%ADD22C,0.600000*%
%TD*%
%TA.AperFunction,Conductor*%
%ADD23C,0.400000*%
%TD*%
%TA.AperFunction,Conductor*%
%ADD24C,1.200000*%
%TD*%
%TA.AperFunction,Conductor*%
%ADD25C,1.000000*%
%TD*%
%TA.AperFunction,Conductor*%
%ADD26C,0.500000*%
%TD*%
G04 APERTURE END LIST*
D10*
%TO.P,J4,1,Pin_1*%
%TO.N,LV-*%
X115900000Y-93600000D03*
D11*
%TO.P,J4,2,Pin_2*%
%TO.N,PS+*%
X115900000Y-98600000D03*
%TD*%
D12*
%TO.P,J3,1,Pin_1*%
%TO.N,LV-*%
X114500000Y-108100000D03*
D13*
%TO.P,J3,2,Pin_2*%
%TO.N,SuppChargerOut+*%
X114500000Y-115300000D03*
%TD*%
%TO.P,J1,2,Pin_2*%
%TO.N,SuppChargerIn+*%
X92300000Y-90050000D03*
D14*
%TO.P,J1,1,Pin_1*%
%TO.N,LV-*%
X85100000Y-90050000D03*
%TD*%
D11*
%TO.P,J2,2,Pin_2*%
%TO.N,PS+*%
X106950000Y-87750000D03*
D10*
%TO.P,J2,1,Pin_1*%
%TO.N,LV-*%
X101950000Y-87750000D03*
%TD*%
D15*
%TO.P,F1,4*%
%TO.N,/SC_Fused*%
X100260000Y-101300000D03*
%TO.P,F1,3*%
%TO.N,SuppChargerIn+*%
X90340000Y-101300000D03*
%TO.P,F1,2*%
%TO.N,/SC_Fused*%
X100260000Y-97900000D03*
%TO.P,F1,1*%
%TO.N,SuppChargerIn+*%
X90340000Y-97900000D03*
%TD*%
D16*
%TO.P,J5,1,Pin_1*%
%TO.N,LV-*%
X78270000Y-105000000D03*
D17*
%TO.P,J5,2,Pin_2*%
%TO.N,/LV_EN_IN*%
X78270000Y-107500000D03*
%TO.P,J5,3,Pin_3*%
%TO.N,/HV_LO+*%
X78270000Y-110000000D03*
%TO.P,J5,4,Pin_4*%
%TO.N,/HV_LO-*%
X78270000Y-112500000D03*
%TO.P,J5,5,Pin_5*%
%TO.N,/LV_EN_SUPP*%
X78270000Y-115000000D03*
%TO.P,J5,6,Pin_6*%
%TO.N,/LV_EN_PS*%
X78270000Y-117500000D03*
%TD*%
D18*
%TO.P,J6,1,Pin_1*%
%TO.N,/HV_LO+*%
X78100000Y-96850000D03*
D17*
%TO.P,J6,2,Pin_2*%
%TO.N,/HV_LO-*%
X78100000Y-99350000D03*
%TD*%
D19*
%TO.P,SW1,*%
%TO.N,*%
X88000000Y-115395000D03*
X88000000Y-118575000D03*
X103750000Y-115395000D03*
X103750000Y-118575000D03*
D20*
%TO.P,SW1,1,A*%
%TO.N,/LV_EN_SUPP*%
X91175000Y-114570000D03*
D19*
%TO.P,SW1,2,B*%
%TO.N,/LV_EN_FUSED*%
X95875000Y-114570000D03*
%TO.P,SW1,3,C*%
%TO.N,/LV_EN_PS*%
X100575000Y-114570000D03*
%TO.P,SW1,4,A*%
%TO.N,unconnected-(SW1B-A-Pad4)*%
X91175000Y-119400000D03*
%TO.P,SW1,5,B*%
%TO.N,/SC_Fused*%
X95875000Y-119400000D03*
%TO.P,SW1,6,C*%
%TO.N,SuppChargerOut+*%
X100575000Y-119400000D03*
%TD*%
D21*
%TO.P,F2,1*%
%TO.N,/LV_EN_IN*%
X82300000Y-106987500D03*
%TO.P,F2,2*%
%TO.N,/LV_EN_FUSED*%
X82300000Y-104012500D03*
%TD*%
D22*
%TO.N,/LV_EN_FUSED*%
X95900000Y-111550000D03*
%TO.N,/LV_EN_SUPP*%
X91200000Y-111550000D03*
%TD*%
D23*
%TO.N,/HV_LO+*%
X78100000Y-96850000D02*
X76599000Y-98351000D01*
X76599000Y-98351000D02*
X76599000Y-108329000D01*
X76599000Y-108329000D02*
X78270000Y-110000000D01*
%TO.N,/LV_EN_FUSED*%
X82300000Y-104012500D02*
X88362500Y-104012500D01*
X88362500Y-104012500D02*
X95900000Y-111550000D01*
%TO.N,/LV_EN_PS*%
X78270000Y-117500000D02*
X81958500Y-121188500D01*
X81958500Y-121188500D02*
X96615821Y-121188500D01*
X96615821Y-121188500D02*
X98786500Y-119017821D01*
X98786500Y-117687706D02*
X100575000Y-115899206D01*
X98786500Y-119017821D02*
X98786500Y-117687706D01*
X100575000Y-115899206D02*
X100575000Y-114570000D01*
%TO.N,/LV_EN_SUPP*%
X78270000Y-115000000D02*
X79663500Y-113606500D01*
X79663500Y-113606500D02*
X90211500Y-113606500D01*
X90211500Y-113606500D02*
X91175000Y-114570000D01*
%TO.N,/LV_EN_IN*%
X78270000Y-107500000D02*
X81787500Y-107500000D01*
X81787500Y-107500000D02*
X82300000Y-106987500D01*
D24*
%TO.N,SuppChargerIn+*%
X90340000Y-101300000D02*
X90340000Y-97900000D01*
D25*
%TO.N,/SC_Fused*%
X98100000Y-103460000D02*
X100260000Y-101300000D01*
X95800000Y-119400000D02*
X98100000Y-117100000D01*
X98100000Y-117100000D02*
X98100000Y-103460000D01*
D24*
X100260000Y-97900000D02*
X100260000Y-101300000D01*
D26*
%TO.N,/LV_EN_FUSED*%
X95900000Y-114570000D02*
X95900000Y-111550000D01*
%TO.N,/LV_EN_SUPP*%
X91200000Y-114570000D02*
X91200000Y-111550000D01*
D24*
%TO.N,SuppChargerIn+*%
X90340000Y-92010000D02*
X92300000Y-90050000D01*
X90340000Y-97900000D02*
X90340000Y-92010000D01*
%TD*%
%TA.AperFunction,Conductor*%
%TO.N,LV-*%
G36*
X116228244Y-83250670D02*
G01*
X116532046Y-83266592D01*
X116544953Y-83267949D01*
X116676089Y-83288718D01*
X116842209Y-83315028D01*
X116854896Y-83317724D01*
X117145625Y-83395625D01*
X117157965Y-83399635D01*
X117438938Y-83507490D01*
X117450790Y-83512767D01*
X117718968Y-83649411D01*
X117730199Y-83655896D01*
X117982608Y-83819812D01*
X117993109Y-83827441D01*
X118227010Y-84016850D01*
X118236655Y-84025535D01*
X118449464Y-84238344D01*
X118458149Y-84247989D01*
X118647558Y-84481890D01*
X118655187Y-84492391D01*
X118819101Y-84744796D01*
X118825591Y-84756036D01*
X118962231Y-85024206D01*
X118967510Y-85036064D01*
X119075363Y-85317033D01*
X119079374Y-85329376D01*
X119157273Y-85620097D01*
X119159971Y-85632794D01*
X119207050Y-85930046D01*
X119208407Y-85942953D01*
X119224330Y-86246756D01*
X119224500Y-86253246D01*
X119224500Y-123596753D01*
X119224330Y-123603243D01*
X119208407Y-123907046D01*
X119207050Y-123919953D01*
X119159971Y-124217205D01*
X119157273Y-124229902D01*
X119079374Y-124520623D01*
X119075363Y-124532966D01*
X118967510Y-124813935D01*
X118962231Y-124825793D01*
X118825591Y-125093963D01*
X118819101Y-125105203D01*
X118655187Y-125357608D01*
X118647558Y-125368109D01*
X118458149Y-125602010D01*
X118449464Y-125611655D01*
X118236655Y-125824464D01*
X118227010Y-125833149D01*
X117993109Y-126022558D01*
X117982608Y-126030187D01*
X117730203Y-126194101D01*
X117718963Y-126200591D01*
X117450793Y-126337231D01*
X117438935Y-126342510D01*
X117157966Y-126450363D01*
X117145623Y-126454374D01*
X116854902Y-126532273D01*
X116842205Y-126534971D01*
X116544953Y-126582050D01*
X116532046Y-126583407D01*
X116228244Y-126599330D01*
X116221754Y-126599500D01*
X77428246Y-126599500D01*
X77421756Y-126599330D01*
X77117953Y-126583407D01*
X77105046Y-126582050D01*
X76807794Y-126534971D01*
X76795097Y-126532273D01*
X76504376Y-126454374D01*
X76492033Y-126450363D01*
X76211064Y-126342510D01*
X76199206Y-126337231D01*
X75931036Y-126200591D01*
X75919796Y-126194101D01*
X75667391Y-126030187D01*
X75656890Y-126022558D01*
X75422989Y-125833149D01*
X75413344Y-125824464D01*
X75200535Y-125611655D01*
X75191850Y-125602010D01*
X75002441Y-125368109D01*
X74994812Y-125357608D01*
X74977566Y-125331052D01*
X74830896Y-125105199D01*
X74824408Y-125093963D01*
X74760871Y-124969266D01*
X74687767Y-124825790D01*
X74682489Y-124813935D01*
X74574636Y-124532966D01*
X74570625Y-124520623D01*
X74492726Y-124229902D01*
X74490028Y-124217205D01*
X74482726Y-124171104D01*
X74442949Y-123919953D01*
X74441592Y-123907046D01*
X74425670Y-123603243D01*
X74425500Y-123596753D01*
X74425500Y-123453711D01*
X75574500Y-123453711D01*
X75574500Y-123696288D01*
X75606161Y-123936785D01*
X75668947Y-124171104D01*
X75730707Y-124320205D01*
X75761776Y-124395212D01*
X75883064Y-124605289D01*
X75883066Y-124605292D01*
X75883067Y-124605293D01*
X76030733Y-124797736D01*
X76030739Y-124797743D01*
X76202256Y-124969260D01*
X76202262Y-124969265D01*
X76394711Y-125116936D01*
X76604788Y-125238224D01*
X76828900Y-125331054D01*
X77063211Y-125393838D01*
X77243586Y-125417584D01*
X77303711Y-125425500D01*
X77303712Y-125425500D01*
X77546289Y-125425500D01*
X77594388Y-125419167D01*
X77786789Y-125393838D01*
X78021100Y-125331054D01*
X78245212Y-125238224D01*
X78455289Y-125116936D01*
X78647738Y-124969265D01*
X78819265Y-124797738D01*
X78966936Y-124605289D01*
X79088224Y-124395212D01*
X79181054Y-124171100D01*
X79243838Y-123936789D01*
X79275500Y-123696288D01*
X79275500Y-123453712D01*
X79275500Y-123453710D01*
X79267223Y-123390837D01*
X79265627Y-123378711D01*
X114299500Y-123378711D01*
X114299500Y-123621288D01*
X114331161Y-123861785D01*
X114393947Y-124096104D01*
X114444109Y-124217205D01*
X114486776Y-124320212D01*
X114608064Y-124530289D01*
X114608066Y-124530292D01*
X114608067Y-124530293D01*
X114755733Y-124722736D01*
X114755739Y-124722743D01*
X114927256Y-124894260D01*
X114927262Y-124894265D01*
X115119711Y-125041936D01*
X115329788Y-125163224D01*
X115553900Y-125256054D01*
X115788211Y-125318838D01*
X115968586Y-125342584D01*
X116028711Y-125350500D01*
X116028712Y-125350500D01*
X116271289Y-125350500D01*
X116319388Y-125344167D01*
X116511789Y-125318838D01*
X116746100Y-125256054D01*
X116970212Y-125163224D01*
X117180289Y-125041936D01*
X117372738Y-124894265D01*
X117544265Y-124722738D01*
X117691936Y-124530289D01*
X117813224Y-124320212D01*
X117906054Y-124096100D01*
X117968838Y-123861789D01*
X118000500Y-123621288D01*
X118000500Y-123378712D01*
X117968838Y-123138211D01*
X117906054Y-122903900D01*
X117813224Y-122679788D01*
X117691936Y-122469711D01*
X117544265Y-122277262D01*
X117544260Y-122277256D01*
X117372743Y-122105739D01*
X117372736Y-122105733D01*
X117180293Y-121958067D01*
X117180292Y-121958066D01*
X117180289Y-121958064D01*
X116970212Y-121836776D01*
X116927169Y-121818947D01*
X116746104Y-121743947D01*
X116511785Y-121681161D01*
X116271289Y-121649500D01*
X116271288Y-121649500D01*
X116028712Y-121649500D01*
X116028711Y-121649500D01*
X115788214Y-121681161D01*
X115553895Y-121743947D01*
X115329794Y-121836773D01*
X115329785Y-121836777D01*
X115119706Y-121958067D01*
X114927263Y-122105733D01*
X114927256Y-122105739D01*
X114755739Y-122277256D01*
X114755733Y-122277263D01*
X114608067Y-122469706D01*
X114486777Y-122679785D01*
X114486773Y-122679794D01*
X114393947Y-122903895D01*
X114331161Y-123138214D01*
X114299500Y-123378711D01*
X79265627Y-123378711D01*
X79243838Y-123213214D01*
X79243838Y-123213211D01*
X79181054Y-122978900D01*
X79088224Y-122754788D01*
X78966936Y-122544711D01*
X78819265Y-122352262D01*
X78819260Y-122352256D01*
X78647743Y-122180739D01*
X78647736Y-122180733D01*
X78455293Y-122033067D01*
X78455292Y-122033066D01*
X78455289Y-122033064D01*
X78245212Y-121911776D01*
X78190226Y-121889000D01*
X78021104Y-121818947D01*
X77786785Y-121756161D01*
X77546289Y-121724500D01*
X77546288Y-121724500D01*
X77303712Y-121724500D01*
X77303711Y-121724500D01*
X77063214Y-121756161D01*
X76828895Y-121818947D01*
X76604794Y-121911773D01*
X76604785Y-121911777D01*
X76394706Y-122033067D01*
X76202263Y-122180733D01*
X76202256Y-122180739D01*
X76030739Y-122352256D01*
X76030733Y-122352263D01*
X75883067Y-122544706D01*
X75761777Y-122754785D01*
X75761773Y-122754794D01*
X75668947Y-122978895D01*
X75606161Y-123213214D01*
X75574500Y-123453711D01*
X74425500Y-123453711D01*
X74425500Y-108397996D01*
X75898499Y-108397996D01*
X75925418Y-108533322D01*
X75925421Y-108533332D01*
X75978222Y-108660807D01*
X76054887Y-108775545D01*
X76054888Y-108775546D01*
X76712868Y-109433525D01*
X76746353Y-109494848D01*
X76743118Y-109559523D01*
X76702754Y-109683753D01*
X76669500Y-109893713D01*
X76669500Y-110106286D01*
X76702753Y-110316239D01*
X76768444Y-110518414D01*
X76864951Y-110707820D01*
X76989890Y-110879786D01*
X77140209Y-111030105D01*
X77140214Y-111030109D01*
X77304793Y-111149682D01*
X77347459Y-111205011D01*
X77353438Y-111274625D01*
X77320833Y-111336420D01*
X77304793Y-111350318D01*
X77140214Y-111469890D01*
X77140209Y-111469894D01*
X76989890Y-111620213D01*
X76864951Y-111792179D01*
X76768444Y-111981585D01*
X76702753Y-112183760D01*
X76669500Y-112393713D01*
X76669500Y-112606286D01*
X76701945Y-112811139D01*
X76702754Y-112816243D01*
X76761428Y-112996823D01*
X76768444Y-113018414D01*
X76864951Y-113207820D01*
X76989890Y-113379786D01*
X77140209Y-113530105D01*
X77140214Y-113530109D01*
X77304793Y-113649682D01*
X77347459Y-113705011D01*
X77353438Y-113774625D01*
X77320833Y-113836420D01*
X77304793Y-113850318D01*
X77140214Y-113969890D01*
X77140209Y-113969894D01*
X76989890Y-114120213D01*
X76864951Y-114292179D01*
X76768444Y-114481585D01*
X76702753Y-114683760D01*
X76701170Y-114693756D01*
X76669500Y-114893713D01*
X76669500Y-115106287D01*
X76675025Y-115141172D01*
X76695626Y-115271243D01*
X76702754Y-115316243D01*
X76753351Y-115471965D01*
X76768444Y-115518414D01*
X76864951Y-115707820D01*
X76989890Y-115879786D01*
X77140209Y-116030105D01*
X77140214Y-116030109D01*
X77304793Y-116149682D01*
X77347459Y-116205011D01*
X77353438Y-116274625D01*
X77320833Y-116336420D01*
X77304793Y-116350318D01*
X77140214Y-116469890D01*
X77140209Y-116469894D01*
X76989890Y-116620213D01*
X76864951Y-116792179D01*
X76768444Y-116981585D01*
X76702753Y-117183760D01*
X76679708Y-117329262D01*
X76669500Y-117393713D01*
X76669500Y-117606287D01*
X76676998Y-117653627D01*
X76690388Y-117738171D01*
X76702754Y-117816243D01*
X76751668Y-117966785D01*
X76768444Y-118018414D01*
X76864951Y-118207820D01*
X76989890Y-118379786D01*
X77140213Y-118530109D01*
X77312179Y-118655048D01*
X77312181Y-118655049D01*
X77312184Y-118655051D01*
X77501588Y-118751557D01*
X77703757Y-118817246D01*
X77913713Y-118850500D01*
X77913714Y-118850500D01*
X78578481Y-118850500D01*
X78645520Y-118870185D01*
X78666162Y-118886819D01*
X81511953Y-121732611D01*
X81511954Y-121732612D01*
X81626692Y-121809277D01*
X81754167Y-121862078D01*
X81754172Y-121862080D01*
X81754176Y-121862080D01*
X81754177Y-121862081D01*
X81889503Y-121889000D01*
X81889506Y-121889000D01*
X96684817Y-121889000D01*
X96775861Y-121870889D01*
X96820149Y-121862080D01*
X96924282Y-121818947D01*
X96947628Y-121809277D01*
X96947629Y-121809276D01*
X96947632Y-121809275D01*
X97062364Y-121732614D01*
X98653144Y-120141832D01*
X98714465Y-120108349D01*
X98784156Y-120113333D01*
X98840090Y-120155204D01*
X98855382Y-120182057D01*
X98878071Y-120236833D01*
X98878074Y-120236838D01*
X98878076Y-120236843D01*
X99001812Y-120451159D01*
X99001823Y-120451175D01*
X99152479Y-120647514D01*
X99152485Y-120647521D01*
X99327478Y-120822514D01*
X99327484Y-120822519D01*
X99523833Y-120973183D01*
X99523840Y-120973187D01*
X99738159Y-121096925D01*
X99738164Y-121096927D01*
X99738167Y-121096929D01*
X99966820Y-121191640D01*
X100205879Y-121255696D01*
X100451254Y-121288000D01*
X100451261Y-121288000D01*
X100698739Y-121288000D01*
X100698746Y-121288000D01*
X100944121Y-121255696D01*
X101183180Y-121191640D01*
X101411833Y-121096929D01*
X101626167Y-120973183D01*
X101822516Y-120822519D01*
X101997519Y-120647516D01*
X102148183Y-120451167D01*
X102271929Y-120236833D01*
X102340912Y-120070292D01*
X102384753Y-120015889D01*
X102451047Y-119993824D01*
X102518746Y-120011103D01*
X102530959Y-120019369D01*
X102597325Y-120070293D01*
X102698833Y-120148183D01*
X102698840Y-120148187D01*
X102913159Y-120271925D01*
X102913164Y-120271927D01*
X102913167Y-120271929D01*
X103141820Y-120366640D01*
X103380879Y-120430696D01*
X103626254Y-120463000D01*
X103626261Y-120463000D01*
X103873739Y-120463000D01*
X103873746Y-120463000D01*
X104119121Y-120430696D01*
X104358180Y-120366640D01*
X104586833Y-120271929D01*
X104801167Y-120148183D01*
X104997516Y-119997519D01*
X105172519Y-119822516D01*
X105323183Y-119626167D01*
X105446929Y-119411833D01*
X105541640Y-119183180D01*
X105605696Y-118944121D01*
X105638000Y-118698746D01*
X105638000Y-118451254D01*
X105605696Y-118205879D01*
X105541640Y-117966820D01*
X105446929Y-117738167D01*
X105446927Y-117738164D01*
X105446925Y-117738159D01*
X105323187Y-117523840D01*
X105323183Y-117523833D01*
X105218774Y-117387765D01*
X105172520Y-117327485D01*
X105172514Y-117327478D01*
X104997521Y-117152485D01*
X104997514Y-117152479D01*
X104907457Y-117083376D01*
X104866254Y-117026948D01*
X104862099Y-116957202D01*
X104896311Y-116896282D01*
X104907457Y-116886624D01*
X104935902Y-116864796D01*
X104997516Y-116817519D01*
X105172519Y-116642516D01*
X105323183Y-116446167D01*
X105446929Y-116231833D01*
X105541640Y-116003180D01*
X105605696Y-115764121D01*
X105638000Y-115518746D01*
X105638000Y-115271254D01*
X105619144Y-115128031D01*
X110999500Y-115128031D01*
X110999500Y-115471969D01*
X111004107Y-115518746D01*
X111033210Y-115814249D01*
X111100308Y-116151572D01*
X111200150Y-116480706D01*
X111331770Y-116798464D01*
X111331772Y-116798469D01*
X111493893Y-117101775D01*
X111493904Y-117101793D01*
X111684975Y-117387751D01*
X111684985Y-117387765D01*
X111903176Y-117653632D01*
X112146367Y-117896823D01*
X112146372Y-117896827D01*
X112146373Y-117896828D01*
X112412240Y-118115019D01*
X112698213Y-118306100D01*
X112698222Y-118306105D01*
X112698224Y-118306106D01*
X113001530Y-118468227D01*
X113001532Y-118468227D01*
X113001538Y-118468231D01*
X113319295Y-118599850D01*
X113648422Y-118699690D01*
X113985750Y-118766789D01*
X114328031Y-118800500D01*
X114328034Y-118800500D01*
X114671966Y-118800500D01*
X114671969Y-118800500D01*
X115014250Y-118766789D01*
X115351578Y-118699690D01*
X115680705Y-118599850D01*
X115998462Y-118468231D01*
X116301787Y-118306100D01*
X116587760Y-118115019D01*
X116853627Y-117896828D01*
X117096828Y-117653627D01*
X117315019Y-117387760D01*
X117506100Y-117101787D01*
X117668231Y-116798462D01*
X117799850Y-116480705D01*
X117899690Y-116151578D01*
X117966789Y-115814250D01*
X118000500Y-115471969D01*
X118000500Y-115128031D01*
X117966789Y-114785750D01*
X117899690Y-114448422D01*
X117799850Y-114119295D01*
X117668231Y-113801538D01*
X117640683Y-113750000D01*
X117506106Y-113498224D01*
X117506105Y-113498222D01*
X117506100Y-113498213D01*
X117315019Y-113212240D01*
X117096828Y-112946373D01*
X117096827Y-112946372D01*
X117096823Y-112946367D01*
X116853632Y-112703176D01*
X116587765Y-112484985D01*
X116587764Y-112484984D01*
X116587760Y-112484981D01*
X116301787Y-112293900D01*
X116301782Y-112293897D01*
X116301775Y-112293893D01*
X115998469Y-112131772D01*
X115998464Y-112131770D01*
X115986057Y-112126631D01*
X115796257Y-112048013D01*
X115680706Y-112000150D01*
X115351572Y-111900308D01*
X115014248Y-111833210D01*
X115014249Y-111833210D01*
X114756456Y-111807821D01*
X114671969Y-111799500D01*
X114328031Y-111799500D01*
X114250358Y-111807150D01*
X113985750Y-111833210D01*
X113648427Y-111900308D01*
X113319293Y-112000150D01*
X113001535Y-112131770D01*
X113001530Y-112131772D01*
X112698224Y-112293893D01*
X112698206Y-112293904D01*
X112412248Y-112484975D01*
X112412234Y-112484985D01*
X112146367Y-112703176D01*
X111903176Y-112946367D01*
X111684985Y-113212234D01*
X111684975Y-113212248D01*
X111493904Y-113498206D01*
X111493893Y-113498224D01*
X111331772Y-113801530D01*
X111331770Y-113801535D01*
X111200150Y-114119293D01*
X111100308Y-114448427D01*
X111033210Y-114785750D01*
X111007188Y-115049966D01*
X110999500Y-115128031D01*
X105619144Y-115128031D01*
X105605696Y-115025882D01*
X105605696Y-115025879D01*
X105541640Y-114786820D01*
X105446929Y-114558167D01*
X105446927Y-114558164D01*
X105446925Y-114558159D01*
X105323187Y-114343840D01*
X105323183Y-114343833D01*
X105213493Y-114200882D01*
X105172520Y-114147485D01*
X105172514Y-114147478D01*
X104997521Y-113972485D01*
X104997514Y-113972479D01*
X104801175Y-113821823D01*
X104801173Y-113821821D01*
X104801167Y-113821817D01*
X104801162Y-113821814D01*
X104801159Y-113821812D01*
X104586840Y-113698074D01*
X104586829Y-113698069D01*
X104358184Y-113603361D01*
X104119117Y-113539303D01*
X103873756Y-113507001D01*
X103873751Y-113507000D01*
X103873746Y-113507000D01*
X103626254Y-113507000D01*
X103626248Y-113507000D01*
X103626243Y-113507001D01*
X103380882Y-113539303D01*
X103141815Y-113603361D01*
X102913170Y-113698069D01*
X102913159Y-113698074D01*
X102698840Y-113821812D01*
X102698824Y-113821823D01*
X102530959Y-113950630D01*
X102465790Y-113975824D01*
X102397345Y-113961785D01*
X102347355Y-113912971D01*
X102340912Y-113899707D01*
X102320454Y-113850318D01*
X102271929Y-113733167D01*
X102271927Y-113733164D01*
X102271925Y-113733159D01*
X102148187Y-113518840D01*
X102148183Y-113518833D01*
X102041493Y-113379792D01*
X101997520Y-113322485D01*
X101997514Y-113322478D01*
X101822521Y-113147485D01*
X101822514Y-113147479D01*
X101626175Y-112996823D01*
X101626173Y-112996821D01*
X101626167Y-112996817D01*
X101626162Y-112996814D01*
X101626159Y-112996812D01*
X101411840Y-112873074D01*
X101411829Y-112873069D01*
X101183184Y-112778361D01*
X100944117Y-112714303D01*
X100698756Y-112682001D01*
X100698751Y-112682000D01*
X100698746Y-112682000D01*
X100451254Y-112682000D01*
X100451248Y-112682000D01*
X100451243Y-112682001D01*
X100205882Y-112714303D01*
X99966815Y-112778361D01*
X99738170Y-112873069D01*
X99738159Y-112873074D01*
X99523840Y-112996812D01*
X99523824Y-112996823D01*
X99327485Y-113147479D01*
X99327478Y-113147485D01*
X99312181Y-113162783D01*
X99250858Y-113196268D01*
X99181166Y-113191284D01*
X99125233Y-113149412D01*
X99100816Y-113083948D01*
X99100500Y-113075102D01*
X99100500Y-103925782D01*
X99120185Y-103858743D01*
X99136819Y-103838101D01*
X99506534Y-103468386D01*
X99951439Y-103023480D01*
X100012760Y-102989997D01*
X100055299Y-102988224D01*
X100142415Y-102999693D01*
X100148527Y-103000498D01*
X100148543Y-103000500D01*
X100148550Y-103000500D01*
X100371450Y-103000500D01*
X100371457Y-103000500D01*
X100592463Y-102971404D01*
X100807781Y-102913710D01*
X101013726Y-102828405D01*
X101206774Y-102716948D01*
X101383624Y-102581247D01*
X101541247Y-102423624D01*
X101676948Y-102246774D01*
X101788405Y-102053726D01*
X101873710Y-101847781D01*
X101931404Y-101632463D01*
X101960500Y-101411457D01*
X101960500Y-101188543D01*
X101931404Y-100967537D01*
X101873710Y-100752219D01*
X101788405Y-100546274D01*
X101676948Y-100353226D01*
X101541247Y-100176376D01*
X101541242Y-100176370D01*
X101396819Y-100031947D01*
X101363334Y-99970624D01*
X101360500Y-99944266D01*
X101360500Y-99255733D01*
X101380185Y-99188694D01*
X101396814Y-99168056D01*
X101541247Y-99023624D01*
X101676948Y-98846774D01*
X101788405Y-98653726D01*
X101864974Y-98468872D01*
X113899500Y-98468872D01*
X113899500Y-98731127D01*
X113921472Y-98898009D01*
X113933730Y-98991116D01*
X113997571Y-99229374D01*
X114001602Y-99244418D01*
X114001605Y-99244428D01*
X114101953Y-99486690D01*
X114101958Y-99486700D01*
X114233075Y-99713803D01*
X114392718Y-99921851D01*
X114392726Y-99921860D01*
X114578140Y-100107274D01*
X114578148Y-100107281D01*
X114786196Y-100266924D01*
X115013299Y-100398041D01*
X115013309Y-100398046D01*
X115255571Y-100498394D01*
X115255581Y-100498398D01*
X115508884Y-100566270D01*
X115768880Y-100600500D01*
X115768887Y-100600500D01*
X116031113Y-100600500D01*
X116031120Y-100600500D01*
X116291116Y-100566270D01*
X116544419Y-100498398D01*
X116786697Y-100398043D01*
X117013803Y-100266924D01*
X117221851Y-100107282D01*
X117221855Y-100107277D01*
X117221860Y-100107274D01*
X117407274Y-99921860D01*
X117407277Y-99921855D01*
X117407282Y-99921851D01*
X117566924Y-99713803D01*
X117698043Y-99486697D01*
X117798398Y-99244419D01*
X117866270Y-98991116D01*
X117900500Y-98731120D01*
X117900500Y-98468880D01*
X117866270Y-98208884D01*
X117798398Y-97955581D01*
X117777222Y-97904457D01*
X117698046Y-97713309D01*
X117698041Y-97713299D01*
X117566924Y-97486196D01*
X117425574Y-97301987D01*
X117407282Y-97278149D01*
X117407281Y-97278148D01*
X117407274Y-97278140D01*
X117221860Y-97092726D01*
X117221851Y-97092718D01*
X117013803Y-96933075D01*
X116786700Y-96801958D01*
X116786690Y-96801953D01*
X116544428Y-96701605D01*
X116544421Y-96701603D01*
X116544419Y-96701602D01*
X116291116Y-96633730D01*
X116233339Y-96626123D01*
X116031127Y-96599500D01*
X116031120Y-96599500D01*
X115768880Y-96599500D01*
X115768872Y-96599500D01*
X115537772Y-96629926D01*
X115508884Y-96633730D01*
X115255581Y-96701602D01*
X115255571Y-96701605D01*
X115013309Y-96801953D01*
X115013299Y-96801958D01*
X114786196Y-96933075D01*
X114578148Y-97092718D01*
X114392718Y-97278148D01*
X114233075Y-97486196D01*
X114101958Y-97713299D01*
X114101953Y-97713309D01*
X114001605Y-97955571D01*
X114001602Y-97955581D01*
X113933732Y-98208876D01*
X113933730Y-98208882D01*
X113899500Y-98468872D01*
X101864974Y-98468872D01*
X101873710Y-98447781D01*
X101931404Y-98232463D01*
X101960500Y-98011457D01*
X101960500Y-97788543D01*
X101931404Y-97567537D01*
X101873710Y-97352219D01*
X101788405Y-97146274D01*
X101676948Y-96953226D01*
X101541247Y-96776376D01*
X101541242Y-96776370D01*
X101383629Y-96618757D01*
X101383622Y-96618751D01*
X101206782Y-96483058D01*
X101206780Y-96483057D01*
X101206774Y-96483052D01*
X101013726Y-96371595D01*
X101013722Y-96371593D01*
X100807790Y-96286293D01*
X100807783Y-96286291D01*
X100807781Y-96286290D01*
X100592463Y-96228596D01*
X100592457Y-96228595D01*
X100592452Y-96228594D01*
X100371466Y-96199501D01*
X100371463Y-96199500D01*
X100371457Y-96199500D01*
X100148543Y-96199500D01*
X100148537Y-96199500D01*
X100148533Y-96199501D01*
X99927547Y-96228594D01*
X99927540Y-96228595D01*
X99927537Y-96228596D01*
X99712219Y-96286290D01*
X99712209Y-96286293D01*
X99506277Y-96371593D01*
X99506273Y-96371595D01*
X99313226Y-96483052D01*
X99313217Y-96483058D01*
X99136377Y-96618751D01*
X99136370Y-96618757D01*
X98978757Y-96776370D01*
X98978751Y-96776377D01*
X98843058Y-96953217D01*
X98843052Y-96953226D01*
X98731595Y-97146273D01*
X98731593Y-97146277D01*
X98646293Y-97352209D01*
X98646290Y-97352219D01*
X98588597Y-97567534D01*
X98588594Y-97567547D01*
X98559501Y-97788533D01*
X98559500Y-97788549D01*
X98559500Y-98011450D01*
X98559501Y-98011466D01*
X98588594Y-98232452D01*
X98588595Y-98232457D01*
X98588596Y-98232463D01*
X98623484Y-98362666D01*
X98646290Y-98447780D01*
X98646293Y-98447790D01*
X98678918Y-98526553D01*
X98731595Y-98653726D01*
X98843052Y-98846774D01*
X98843057Y-98846780D01*
X98843058Y-98846782D01*
X98978750Y-99023621D01*
X98978752Y-99023623D01*
X98978753Y-99023624D01*
X99123182Y-99168053D01*
X99156666Y-99229374D01*
X99159500Y-99255733D01*
X99159500Y-99944266D01*
X99139815Y-100011305D01*
X99123181Y-100031947D01*
X98978757Y-100176370D01*
X98978751Y-100176377D01*
X98843058Y-100353217D01*
X98843052Y-100353226D01*
X98731595Y-100546273D01*
X98731593Y-100546277D01*
X98646293Y-100752209D01*
X98646290Y-100752219D01*
X98588597Y-100967534D01*
X98588594Y-100967547D01*
X98559501Y-101188533D01*
X98559500Y-101188549D01*
X98559500Y-101411459D01*
X98571774Y-101504696D01*
X98561008Y-101573731D01*
X98536516Y-101608561D01*
X97721457Y-102423622D01*
X97462220Y-102682859D01*
X97462218Y-102682861D01*
X97392538Y-102752540D01*
X97322859Y-102822219D01*
X97213371Y-102986079D01*
X97213364Y-102986092D01*
X97137950Y-103168160D01*
X97137947Y-103168170D01*
X97099500Y-103361456D01*
X97099500Y-112882116D01*
X97079815Y-112949155D01*
X97027011Y-112994910D01*
X96957853Y-113004854D01*
X96913500Y-112989503D01*
X96712500Y-112873455D01*
X96664284Y-112822888D01*
X96650500Y-112766068D01*
X96650500Y-111854604D01*
X96659939Y-111807151D01*
X96669737Y-111783497D01*
X96700500Y-111628842D01*
X96700500Y-111471158D01*
X96700500Y-111471155D01*
X96700499Y-111471153D01*
X96674150Y-111338691D01*
X96669737Y-111316503D01*
X96623556Y-111205011D01*
X96609397Y-111170827D01*
X96609390Y-111170814D01*
X96521789Y-111039711D01*
X96521786Y-111039707D01*
X96410292Y-110928213D01*
X96410288Y-110928210D01*
X96279185Y-110840609D01*
X96279172Y-110840602D01*
X96134814Y-110780808D01*
X96094585Y-110753928D01*
X88809046Y-103468388D01*
X88809045Y-103468387D01*
X88694307Y-103391722D01*
X88566832Y-103338921D01*
X88566822Y-103338918D01*
X88431496Y-103312000D01*
X88431494Y-103312000D01*
X88431493Y-103312000D01*
X84176306Y-103312000D01*
X84109267Y-103292315D01*
X84063512Y-103239511D01*
X84061239Y-103233725D01*
X84059815Y-103230671D01*
X84059814Y-103230666D01*
X84059810Y-103230660D01*
X84059809Y-103230657D01*
X83967713Y-103081348D01*
X83967710Y-103081344D01*
X83843655Y-102957289D01*
X83843651Y-102957286D01*
X83694337Y-102865187D01*
X83694335Y-102865186D01*
X83611065Y-102837593D01*
X83527797Y-102810001D01*
X83527795Y-102810000D01*
X83425015Y-102799500D01*
X83425008Y-102799500D01*
X81174992Y-102799500D01*
X81174984Y-102799500D01*
X81072204Y-102810000D01*
X81072203Y-102810001D01*
X80905664Y-102865186D01*
X80905662Y-102865187D01*
X80756348Y-102957286D01*
X80756344Y-102957289D01*
X80632289Y-103081344D01*
X80632286Y-103081348D01*
X80540187Y-103230662D01*
X80540186Y-103230664D01*
X80485001Y-103397203D01*
X80485000Y-103397204D01*
X80474500Y-103499984D01*
X80474500Y-104525015D01*
X80485000Y-104627795D01*
X80485001Y-104627796D01*
X80540186Y-104794335D01*
X80540187Y-104794337D01*
X80632286Y-104943651D01*
X80632289Y-104943655D01*
X80756344Y-105067710D01*
X80756348Y-105067713D01*
X80905662Y-105159812D01*
X80905664Y-105159813D01*
X80905666Y-105159814D01*
X81072203Y-105214999D01*
X81174992Y-105225500D01*
X81174997Y-105225500D01*
X83425003Y-105225500D01*
X83425008Y-105225500D01*
X83527797Y-105214999D01*
X83694334Y-105159814D01*
X83843655Y-105067711D01*
X83967711Y-104943655D01*
X84059814Y-104794334D01*
X84059817Y-104794324D01*
X84062864Y-104787791D01*
X84064981Y-104788778D01*
X84098371Y-104740552D01*
X84162886Y-104713728D01*
X84176306Y-104713000D01*
X88020981Y-104713000D01*
X88088020Y-104732685D01*
X88108662Y-104749319D01*
X95103928Y-111744585D01*
X95108559Y-111751516D01*
X95112798Y-111754459D01*
X95130806Y-111784810D01*
X95140061Y-111807151D01*
X95149500Y-111854604D01*
X95149500Y-112744100D01*
X95129815Y-112811139D01*
X95077011Y-112856894D01*
X95072955Y-112858660D01*
X95038174Y-112873067D01*
X95038159Y-112873074D01*
X94823840Y-112996812D01*
X94823824Y-112996823D01*
X94627485Y-113147479D01*
X94627478Y-113147485D01*
X94452485Y-113322478D01*
X94452479Y-113322485D01*
X94301823Y-113518824D01*
X94301812Y-113518840D01*
X94178074Y-113733159D01*
X94178069Y-113733170D01*
X94083361Y-113961815D01*
X94019303Y-114200882D01*
X93987001Y-114446243D01*
X93987000Y-114446260D01*
X93987000Y-114693739D01*
X93987001Y-114693756D01*
X94019303Y-114939117D01*
X94083361Y-115178184D01*
X94178069Y-115406829D01*
X94178074Y-115406840D01*
X94301812Y-115621159D01*
X94301823Y-115621175D01*
X94452479Y-115817514D01*
X94452485Y-115817521D01*
X94627478Y-115992514D01*
X94627485Y-115992520D01*
X94767305Y-116099807D01*
X94823833Y-116143183D01*
X94823840Y-116143187D01*
X95038159Y-116266925D01*
X95038164Y-116266927D01*
X95038167Y-116266929D01*
X95266820Y-116361640D01*
X95505879Y-116425696D01*
X95751254Y-116458000D01*
X95751261Y-116458000D01*
X95998739Y-116458000D01*
X95998746Y-116458000D01*
X96244121Y-116425696D01*
X96483180Y-116361640D01*
X96711833Y-116266929D01*
X96913500Y-116150495D01*
X96981400Y-116134023D01*
X97047427Y-116156875D01*
X97090617Y-116211796D01*
X97099500Y-116257883D01*
X97099500Y-116634217D01*
X97079815Y-116701256D01*
X97063181Y-116721898D01*
X96284404Y-117500674D01*
X96223081Y-117534159D01*
X96180539Y-117535932D01*
X95998748Y-117512000D01*
X95998746Y-117512000D01*
X95751254Y-117512000D01*
X95751248Y-117512000D01*
X95751243Y-117512001D01*
X95505882Y-117544303D01*
X95266815Y-117608361D01*
X95038170Y-117703069D01*
X95038159Y-117703074D01*
X94823840Y-117826812D01*
X94823824Y-117826823D01*
X94627485Y-117977479D01*
X94627478Y-117977485D01*
X94452485Y-118152478D01*
X94452479Y-118152485D01*
X94301823Y-118348824D01*
X94301812Y-118348840D01*
X94178074Y-118563159D01*
X94178069Y-118563170D01*
X94083361Y-118791815D01*
X94019303Y-119030882D01*
X93987001Y-119276243D01*
X93987000Y-119276260D01*
X93987000Y-119523739D01*
X93987001Y-119523756D01*
X94019303Y-119769117D01*
X94083361Y-120008184D01*
X94178067Y-120236824D01*
X94178071Y-120236833D01*
X94204608Y-120282797D01*
X94215695Y-120301999D01*
X94232168Y-120369900D01*
X94209316Y-120435927D01*
X94154395Y-120479117D01*
X94108308Y-120488000D01*
X92941692Y-120488000D01*
X92874653Y-120468315D01*
X92828898Y-120415511D01*
X92818954Y-120346353D01*
X92834305Y-120301999D01*
X92871929Y-120236833D01*
X92966640Y-120008180D01*
X93030696Y-119769121D01*
X93063000Y-119523746D01*
X93063000Y-119276254D01*
X93030696Y-119030879D01*
X92966640Y-118791820D01*
X92871929Y-118563167D01*
X92871927Y-118563164D01*
X92871925Y-118563159D01*
X92748187Y-118348840D01*
X92748183Y-118348833D01*
X92638493Y-118205882D01*
X92597520Y-118152485D01*
X92597514Y-118152478D01*
X92422521Y-117977485D01*
X92422514Y-117977479D01*
X92226175Y-117826823D01*
X92226173Y-117826821D01*
X92226167Y-117826817D01*
X92226162Y-117826814D01*
X92226159Y-117826812D01*
X92011840Y-117703074D01*
X92011829Y-117703069D01*
X91783184Y-117608361D01*
X91544117Y-117544303D01*
X91298756Y-117512001D01*
X91298751Y-117512000D01*
X91298746Y-117512000D01*
X91051254Y-117512000D01*
X91051248Y-117512000D01*
X91051243Y-117512001D01*
X90805882Y-117544303D01*
X90566815Y-117608361D01*
X90338170Y-117703069D01*
X90338159Y-117703074D01*
X90123840Y-117826812D01*
X90123824Y-117826823D01*
X89955959Y-117955630D01*
X89890790Y-117980824D01*
X89822345Y-117966785D01*
X89772355Y-117917971D01*
X89765912Y-117904707D01*
X89729267Y-117816239D01*
X89696929Y-117738167D01*
X89696927Y-117738164D01*
X89696925Y-117738159D01*
X89573187Y-117523840D01*
X89573183Y-117523833D01*
X89468774Y-117387765D01*
X89422520Y-117327485D01*
X89422514Y-117327478D01*
X89247521Y-117152485D01*
X89247514Y-117152479D01*
X89157457Y-117083376D01*
X89116254Y-117026948D01*
X89112099Y-116957202D01*
X89146311Y-116896282D01*
X89157457Y-116886624D01*
X89185902Y-116864796D01*
X89247516Y-116817519D01*
X89422519Y-116642516D01*
X89537909Y-116492136D01*
X89594334Y-116450935D01*
X89664080Y-116446780D01*
X89679616Y-116451442D01*
X89679935Y-116451560D01*
X89680017Y-116451591D01*
X89739627Y-116458000D01*
X92610372Y-116457999D01*
X92669983Y-116451591D01*
X92804831Y-116401296D01*
X92920046Y-116315046D01*
X93006296Y-116199831D01*
X93056591Y-116064983D01*
X93063000Y-116005373D01*
X93062999Y-113134628D01*
X93056591Y-113075017D01*
X93035479Y-113018414D01*
X93006297Y-112940171D01*
X93006293Y-112940164D01*
X92920047Y-112824955D01*
X92920044Y-112824952D01*
X92804835Y-112738706D01*
X92804828Y-112738702D01*
X92669982Y-112688408D01*
X92669983Y-112688408D01*
X92610383Y-112682001D01*
X92610381Y-112682000D01*
X92610373Y-112682000D01*
X92610365Y-112682000D01*
X92074500Y-112682000D01*
X92007461Y-112662315D01*
X91961706Y-112609511D01*
X91950500Y-112558000D01*
X91950500Y-111854604D01*
X91959939Y-111807151D01*
X91969737Y-111783497D01*
X92000500Y-111628842D01*
X92000500Y-111471158D01*
X92000500Y-111471155D01*
X92000499Y-111471153D01*
X91974150Y-111338691D01*
X91969737Y-111316503D01*
X91923556Y-111205011D01*
X91909397Y-111170827D01*
X91909390Y-111170814D01*
X91821789Y-111039711D01*
X91821786Y-111039707D01*
X91710292Y-110928213D01*
X91710288Y-110928210D01*
X91579185Y-110840609D01*
X91579172Y-110840602D01*
X91433501Y-110780264D01*
X91433489Y-110780261D01*
X91278845Y-110749500D01*
X91278842Y-110749500D01*
X91121158Y-110749500D01*
X91121155Y-110749500D01*
X90966510Y-110780261D01*
X90966498Y-110780264D01*
X90820827Y-110840602D01*
X90820814Y-110840609D01*
X90689711Y-110928210D01*
X90689707Y-110928213D01*
X90578213Y-111039707D01*
X90578210Y-111039711D01*
X90490609Y-111170814D01*
X90490602Y-111170827D01*
X90430264Y-111316498D01*
X90430261Y-111316510D01*
X90399500Y-111471153D01*
X90399500Y-111628846D01*
X90427140Y-111767797D01*
X90430263Y-111783497D01*
X90440060Y-111807150D01*
X90440061Y-111807151D01*
X90449500Y-111854604D01*
X90449500Y-112558000D01*
X90429815Y-112625039D01*
X90377011Y-112670794D01*
X90325500Y-112682000D01*
X89739629Y-112682000D01*
X89739623Y-112682001D01*
X89680016Y-112688408D01*
X89545171Y-112738702D01*
X89545164Y-112738706D01*
X89429956Y-112824951D01*
X89429954Y-112824954D01*
X89406479Y-112856312D01*
X89350547Y-112898182D01*
X89307214Y-112906000D01*
X79968215Y-112906000D01*
X79901176Y-112886315D01*
X79855421Y-112833511D01*
X79845477Y-112764353D01*
X79845742Y-112762602D01*
X79870500Y-112606286D01*
X79870500Y-112393713D01*
X79844632Y-112230391D01*
X79853587Y-112161098D01*
X79898583Y-112107646D01*
X79919653Y-112096432D01*
X80036540Y-112048016D01*
X80036540Y-112048015D01*
X80036547Y-112048013D01*
X80184035Y-111949464D01*
X80309464Y-111824035D01*
X80408013Y-111676547D01*
X80475894Y-111512666D01*
X80510500Y-111338691D01*
X80510500Y-111161309D01*
X80510500Y-111161306D01*
X80510499Y-111161304D01*
X80475896Y-110987341D01*
X80475893Y-110987332D01*
X80408016Y-110823459D01*
X80408009Y-110823446D01*
X80309464Y-110675965D01*
X80309461Y-110675961D01*
X80184038Y-110550538D01*
X80184034Y-110550535D01*
X80036553Y-110451990D01*
X80036540Y-110451983D01*
X79919653Y-110403568D01*
X79865249Y-110359727D01*
X79843184Y-110293433D01*
X79844632Y-110269609D01*
X79870500Y-110106286D01*
X79870500Y-109893713D01*
X79837246Y-109683760D01*
X79837246Y-109683757D01*
X79771557Y-109481588D01*
X79675051Y-109292184D01*
X79675049Y-109292181D01*
X79675048Y-109292179D01*
X79550109Y-109120213D01*
X79399792Y-108969896D01*
X79235204Y-108850316D01*
X79192540Y-108794989D01*
X79186561Y-108725376D01*
X79219166Y-108663580D01*
X79235199Y-108649686D01*
X79399792Y-108530104D01*
X79550104Y-108379792D01*
X79643229Y-108251614D01*
X79698558Y-108208949D01*
X79743547Y-108200500D01*
X83425003Y-108200500D01*
X83425008Y-108200500D01*
X83527797Y-108189999D01*
X83694334Y-108134814D01*
X83843655Y-108042711D01*
X83967711Y-107918655D01*
X84059814Y-107769334D01*
X84114999Y-107602797D01*
X84125500Y-107500008D01*
X84125500Y-106474992D01*
X84114999Y-106372203D01*
X84059814Y-106205666D01*
X84049571Y-106189060D01*
X83967713Y-106056348D01*
X83967710Y-106056344D01*
X83843655Y-105932289D01*
X83843651Y-105932286D01*
X83694337Y-105840187D01*
X83694335Y-105840186D01*
X83611065Y-105812593D01*
X83527797Y-105785001D01*
X83527795Y-105785000D01*
X83425015Y-105774500D01*
X83425008Y-105774500D01*
X81174992Y-105774500D01*
X81174984Y-105774500D01*
X81072204Y-105785000D01*
X81072203Y-105785001D01*
X80905664Y-105840186D01*
X80905662Y-105840187D01*
X80756348Y-105932286D01*
X80756344Y-105932289D01*
X80632289Y-106056344D01*
X80632286Y-106056348D01*
X80540187Y-106205662D01*
X80540186Y-106205664D01*
X80485001Y-106372203D01*
X80485000Y-106372204D01*
X80474500Y-106474984D01*
X80474500Y-106675500D01*
X80454815Y-106742539D01*
X80402011Y-106788294D01*
X80350500Y-106799500D01*
X79743547Y-106799500D01*
X79676508Y-106779815D01*
X79643230Y-106748385D01*
X79590276Y-106675500D01*
X79550107Y-106620211D01*
X79399786Y-106469890D01*
X79227820Y-106344951D01*
X79038414Y-106248444D01*
X79038413Y-106248443D01*
X79038412Y-106248443D01*
X78836243Y-106182754D01*
X78836241Y-106182753D01*
X78836240Y-106182753D01*
X78674957Y-106157208D01*
X78626287Y-106149500D01*
X77913713Y-106149500D01*
X77865042Y-106157208D01*
X77703760Y-106182753D01*
X77501585Y-106248444D01*
X77479795Y-106259547D01*
X77411126Y-106272443D01*
X77346385Y-106246167D01*
X77306128Y-106189060D01*
X77299500Y-106149062D01*
X77299500Y-100761802D01*
X77319185Y-100694763D01*
X77371989Y-100649008D01*
X77441147Y-100639064D01*
X77461812Y-100643869D01*
X77533757Y-100667246D01*
X77743713Y-100700500D01*
X77743714Y-100700500D01*
X78456286Y-100700500D01*
X78456287Y-100700500D01*
X78666243Y-100667246D01*
X78868412Y-100601557D01*
X79057816Y-100505051D01*
X79079789Y-100489086D01*
X79229786Y-100380109D01*
X79229788Y-100380106D01*
X79229792Y-100380104D01*
X79380104Y-100229792D01*
X79380106Y-100229788D01*
X79380109Y-100229786D01*
X79505048Y-100057820D01*
X79505047Y-100057820D01*
X79505051Y-100057816D01*
X79601557Y-99868412D01*
X79667246Y-99666243D01*
X79700500Y-99456287D01*
X79700500Y-99243713D01*
X79674632Y-99080390D01*
X79683587Y-99011098D01*
X79728583Y-98957646D01*
X79749653Y-98946432D01*
X79866540Y-98898016D01*
X79866540Y-98898015D01*
X79866547Y-98898013D01*
X80014035Y-98799464D01*
X80139464Y-98674035D01*
X80238013Y-98526547D01*
X80305894Y-98362666D01*
X80340500Y-98188691D01*
X80340500Y-98011309D01*
X80340500Y-98011306D01*
X80340499Y-98011304D01*
X80305896Y-97837341D01*
X80305893Y-97837332D01*
X80303658Y-97831936D01*
X80285687Y-97788549D01*
X88639500Y-97788549D01*
X88639500Y-98011450D01*
X88639501Y-98011466D01*
X88668594Y-98232452D01*
X88668595Y-98232457D01*
X88668596Y-98232463D01*
X88703484Y-98362666D01*
X88726290Y-98447780D01*
X88726293Y-98447790D01*
X88758918Y-98526553D01*
X88811595Y-98653726D01*
X88923052Y-98846774D01*
X88923057Y-98846780D01*
X88923058Y-98846782D01*
X89058750Y-99023621D01*
X89058752Y-99023623D01*
X89058753Y-99023624D01*
X89203182Y-99168053D01*
X89236666Y-99229374D01*
X89239500Y-99255733D01*
X89239500Y-99944266D01*
X89219815Y-100011305D01*
X89203181Y-100031947D01*
X89058757Y-100176370D01*
X89058751Y-100176377D01*
X88923058Y-100353217D01*
X88923052Y-100353226D01*
X88811595Y-100546273D01*
X88811593Y-100546277D01*
X88726293Y-100752209D01*
X88726290Y-100752219D01*
X88668597Y-100967534D01*
X88668594Y-100967547D01*
X88639501Y-101188533D01*
X88639500Y-101188543D01*
X88639500Y-101411457D01*
X88639500Y-101411463D01*
X88639501Y-101411466D01*
X88668594Y-101632452D01*
X88668595Y-101632457D01*
X88668596Y-101632463D01*
X88668597Y-101632465D01*
X88726290Y-101847780D01*
X88726293Y-101847790D01*
X88811593Y-102053722D01*
X88811595Y-102053726D01*
X88923052Y-102246774D01*
X88923057Y-102246780D01*
X88923058Y-102246782D01*
X89058751Y-102423622D01*
X89058757Y-102423629D01*
X89216370Y-102581242D01*
X89216376Y-102581247D01*
X89393226Y-102716948D01*
X89586274Y-102828405D01*
X89792219Y-102913710D01*
X90007537Y-102971404D01*
X90228543Y-103000500D01*
X90228550Y-103000500D01*
X90451450Y-103000500D01*
X90451457Y-103000500D01*
X90672463Y-102971404D01*
X90887781Y-102913710D01*
X91093726Y-102828405D01*
X91286774Y-102716948D01*
X91463624Y-102581247D01*
X91621247Y-102423624D01*
X91756948Y-102246774D01*
X91868405Y-102053726D01*
X91953710Y-101847781D01*
X92011404Y-101632463D01*
X92040500Y-101411457D01*
X92040500Y-101188543D01*
X92011404Y-100967537D01*
X91953710Y-100752219D01*
X91868405Y-100546274D01*
X91756948Y-100353226D01*
X91621247Y-100176376D01*
X91621242Y-100176370D01*
X91476819Y-100031947D01*
X91443334Y-99970624D01*
X91440500Y-99944266D01*
X91440500Y-99255733D01*
X91460185Y-99188694D01*
X91476814Y-99168056D01*
X91621247Y-99023624D01*
X91756948Y-98846774D01*
X91868405Y-98653726D01*
X91953710Y-98447781D01*
X92011404Y-98232463D01*
X92040500Y-98011457D01*
X92040500Y-97788543D01*
X92011404Y-97567537D01*
X91953710Y-97352219D01*
X91868405Y-97146274D01*
X91756948Y-96953226D01*
X91621247Y-96776376D01*
X91621242Y-96776370D01*
X91476819Y-96631947D01*
X91443334Y-96570624D01*
X91440500Y-96544266D01*
X91440500Y-93599208D01*
X91460185Y-93532169D01*
X91512989Y-93486414D01*
X91582147Y-93476470D01*
X91588671Y-93477587D01*
X91785750Y-93516789D01*
X92128031Y-93550500D01*
X92128034Y-93550500D01*
X92471966Y-93550500D01*
X92471969Y-93550500D01*
X92814250Y-93516789D01*
X93151578Y-93449690D01*
X93480705Y-93349850D01*
X93798462Y-93218231D01*
X94101787Y-93056100D01*
X94387760Y-92865019D01*
X94653627Y-92646828D01*
X94896828Y-92403627D01*
X95115019Y-92137760D01*
X95306100Y-91851787D01*
X95468231Y-91548462D01*
X95599850Y-91230705D01*
X95699690Y-90901578D01*
X95766789Y-90564250D01*
X95800500Y-90221969D01*
X95800500Y-89878031D01*
X95766789Y-89535750D01*
X95699690Y-89198422D01*
X95599850Y-88869295D01*
X95468231Y-88551538D01*
X95384248Y-88394418D01*
X95306106Y-88248224D01*
X95306105Y-88248222D01*
X95306100Y-88248213D01*
X95115019Y-87962240D01*
X94896828Y-87696373D01*
X94896827Y-87696372D01*
X94896823Y-87696367D01*
X94819328Y-87618872D01*
X104949500Y-87618872D01*
X104949500Y-87881127D01*
X104965948Y-88006052D01*
X104983730Y-88141116D01*
X105051602Y-88394418D01*
X105051605Y-88394428D01*
X105151953Y-88636690D01*
X105151958Y-88636700D01*
X105283075Y-88863803D01*
X105442718Y-89071851D01*
X105442726Y-89071860D01*
X105628140Y-89257274D01*
X105628148Y-89257281D01*
X105836196Y-89416924D01*
X106063299Y-89548041D01*
X106063309Y-89548046D01*
X106305571Y-89648394D01*
X106305581Y-89648398D01*
X106558884Y-89716270D01*
X106818880Y-89750500D01*
X106818887Y-89750500D01*
X107081113Y-89750500D01*
X107081120Y-89750500D01*
X107341116Y-89716270D01*
X107594419Y-89648398D01*
X107836697Y-89548043D01*
X108063803Y-89416924D01*
X108271851Y-89257282D01*
X108271855Y-89257277D01*
X108271860Y-89257274D01*
X108457274Y-89071860D01*
X108457277Y-89071855D01*
X108457282Y-89071851D01*
X108616924Y-88863803D01*
X108748043Y-88636697D01*
X108848398Y-88394419D01*
X108916270Y-88141116D01*
X108950500Y-87881120D01*
X108950500Y-87618880D01*
X108916270Y-87358884D01*
X108848398Y-87105581D01*
X108848394Y-87105571D01*
X108748046Y-86863309D01*
X108748041Y-86863299D01*
X108616924Y-86636196D01*
X108457281Y-86428148D01*
X108457274Y-86428140D01*
X108271858Y-86242724D01*
X108271853Y-86242720D01*
X108271851Y-86242718D01*
X108123275Y-86128711D01*
X113999500Y-86128711D01*
X113999500Y-86371288D01*
X114031161Y-86611785D01*
X114093947Y-86846104D01*
X114175874Y-87043893D01*
X114186776Y-87070212D01*
X114308064Y-87280289D01*
X114308066Y-87280292D01*
X114308067Y-87280293D01*
X114455733Y-87472736D01*
X114455739Y-87472743D01*
X114627256Y-87644260D01*
X114627263Y-87644266D01*
X114740321Y-87731018D01*
X114819711Y-87791936D01*
X115029788Y-87913224D01*
X115253900Y-88006054D01*
X115488211Y-88068838D01*
X115668586Y-88092584D01*
X115728711Y-88100500D01*
X115728712Y-88100500D01*
X115971289Y-88100500D01*
X116019388Y-88094167D01*
X116211789Y-88068838D01*
X116446100Y-88006054D01*
X116670212Y-87913224D01*
X116880289Y-87791936D01*
X117072738Y-87644265D01*
X117244265Y-87472738D01*
X117391936Y-87280289D01*
X117513224Y-87070212D01*
X117606054Y-86846100D01*
X117668838Y-86611789D01*
X117700500Y-86371288D01*
X117700500Y-86128712D01*
X117694491Y-86083072D01*
X117677230Y-85951957D01*
X117668838Y-85888211D01*
X117606054Y-85653900D01*
X117513224Y-85429788D01*
X117391936Y-85219711D01*
X117244265Y-85027262D01*
X117244260Y-85027256D01*
X117072743Y-84855739D01*
X117072736Y-84855733D01*
X116880293Y-84708067D01*
X116880292Y-84708066D01*
X116880289Y-84708064D01*
X116670212Y-84586776D01*
X116670205Y-84586773D01*
X116446104Y-84493947D01*
X116211785Y-84431161D01*
X115971289Y-84399500D01*
X115971288Y-84399500D01*
X115728712Y-84399500D01*
X115728711Y-84399500D01*
X115488214Y-84431161D01*
X115253895Y-84493947D01*
X115029794Y-84586773D01*
X115029785Y-84586777D01*
X114819706Y-84708067D01*
X114627263Y-84855733D01*
X114627256Y-84855739D01*
X114455739Y-85027256D01*
X114455733Y-85027263D01*
X114308067Y-85219706D01*
X114186777Y-85429785D01*
X114186773Y-85429794D01*
X114093947Y-85653895D01*
X114031161Y-85888214D01*
X113999500Y-86128711D01*
X108123275Y-86128711D01*
X108063803Y-86083076D01*
X108063799Y-86083074D01*
X108063797Y-86083072D01*
X107836700Y-85951958D01*
X107836690Y-85951953D01*
X107594428Y-85851605D01*
X107594421Y-85851603D01*
X107594419Y-85851602D01*
X107341116Y-85783730D01*
X107283339Y-85776123D01*
X107081127Y-85749500D01*
X107081120Y-85749500D01*
X106818880Y-85749500D01*
X106818872Y-85749500D01*
X106587772Y-85779926D01*
X106558884Y-85783730D01*
X106305581Y-85851602D01*
X106305571Y-85851605D01*
X106063309Y-85951953D01*
X106063299Y-85951958D01*
X105836196Y-86083075D01*
X105628148Y-86242718D01*
X105442718Y-86428148D01*
X105283075Y-86636196D01*
X105151958Y-86863299D01*
X105151953Y-86863309D01*
X105051605Y-87105571D01*
X105051602Y-87105581D01*
X105004790Y-87280289D01*
X104983730Y-87358885D01*
X104949500Y-87618872D01*
X94819328Y-87618872D01*
X94653632Y-87453176D01*
X94387765Y-87234985D01*
X94387764Y-87234984D01*
X94387760Y-87234981D01*
X94101787Y-87043900D01*
X94101782Y-87043897D01*
X94101775Y-87043893D01*
X93798469Y-86881772D01*
X93798464Y-86881770D01*
X93753895Y-86863309D01*
X93705394Y-86843219D01*
X93480706Y-86750150D01*
X93151572Y-86650308D01*
X92814248Y-86583210D01*
X92814249Y-86583210D01*
X92556456Y-86557821D01*
X92471969Y-86549500D01*
X92128031Y-86549500D01*
X92049966Y-86557188D01*
X91785750Y-86583210D01*
X91448427Y-86650308D01*
X91119293Y-86750150D01*
X90801535Y-86881770D01*
X90801530Y-86881772D01*
X90498224Y-87043893D01*
X90498206Y-87043904D01*
X90212248Y-87234975D01*
X90212234Y-87234985D01*
X89946367Y-87453176D01*
X89703176Y-87696367D01*
X89484985Y-87962234D01*
X89484975Y-87962248D01*
X89293904Y-88248206D01*
X89293893Y-88248224D01*
X89131772Y-88551530D01*
X89131770Y-88551535D01*
X89000150Y-88869293D01*
X88900308Y-89198427D01*
X88833210Y-89535750D01*
X88799500Y-89878034D01*
X88799500Y-90221965D01*
X88833210Y-90564249D01*
X88900308Y-90901572D01*
X89000150Y-91230706D01*
X89131770Y-91548464D01*
X89131772Y-91548469D01*
X89241053Y-91752919D01*
X89255295Y-91821322D01*
X89254168Y-91830769D01*
X89239500Y-91923382D01*
X89239500Y-96544266D01*
X89219815Y-96611305D01*
X89203181Y-96631947D01*
X89058757Y-96776370D01*
X89058751Y-96776377D01*
X88923058Y-96953217D01*
X88923052Y-96953226D01*
X88811595Y-97146273D01*
X88811593Y-97146277D01*
X88726293Y-97352209D01*
X88726290Y-97352219D01*
X88668597Y-97567534D01*
X88668594Y-97567547D01*
X88639501Y-97788533D01*
X88639500Y-97788549D01*
X80285687Y-97788549D01*
X80238016Y-97673459D01*
X80238009Y-97673446D01*
X80139464Y-97525965D01*
X80139461Y-97525961D01*
X80014038Y-97400538D01*
X80014034Y-97400535D01*
X79866553Y-97301990D01*
X79866540Y-97301983D01*
X79777736Y-97265200D01*
X79723332Y-97221359D01*
X79701267Y-97155065D01*
X79701785Y-97138485D01*
X79706292Y-97092726D01*
X79710500Y-97050000D01*
X79710500Y-96250000D01*
X79700787Y-96151380D01*
X79681376Y-96053796D01*
X79667994Y-96001366D01*
X79605897Y-95871576D01*
X79550620Y-95788848D01*
X79518191Y-95745527D01*
X79411152Y-95649380D01*
X79328424Y-95594103D01*
X79328423Y-95594102D01*
X79281887Y-95566491D01*
X79281886Y-95566490D01*
X79146210Y-95518625D01*
X79146204Y-95518624D01*
X79098065Y-95509048D01*
X79048616Y-95499212D01*
X78974188Y-95491882D01*
X78950000Y-95489500D01*
X77250000Y-95489500D01*
X77228453Y-95491622D01*
X77151383Y-95499212D01*
X77053793Y-95518624D01*
X77053771Y-95518629D01*
X77001371Y-95532004D01*
X77001367Y-95532005D01*
X76871572Y-95594105D01*
X76788854Y-95649375D01*
X76788840Y-95649385D01*
X76745527Y-95681809D01*
X76649377Y-95788851D01*
X76649377Y-95788852D01*
X76594102Y-95871576D01*
X76566491Y-95918112D01*
X76566490Y-95918113D01*
X76518625Y-96053789D01*
X76518624Y-96053796D01*
X76499212Y-96151383D01*
X76489500Y-96250002D01*
X76489500Y-97418480D01*
X76469815Y-97485519D01*
X76453181Y-97506161D01*
X76054890Y-97904451D01*
X76054887Y-97904454D01*
X75999993Y-97986611D01*
X75999992Y-97986612D01*
X75978229Y-98019181D01*
X75978221Y-98019195D01*
X75925421Y-98146667D01*
X75925418Y-98146677D01*
X75898500Y-98282004D01*
X75898500Y-98282007D01*
X75898500Y-108260006D01*
X75898500Y-108397994D01*
X75898500Y-108397996D01*
X75898499Y-108397996D01*
X74425500Y-108397996D01*
X74425500Y-86253246D01*
X74425670Y-86246757D01*
X74428953Y-86184108D01*
X74431856Y-86128711D01*
X75574500Y-86128711D01*
X75574500Y-86371288D01*
X75606161Y-86611785D01*
X75668947Y-86846104D01*
X75750874Y-87043893D01*
X75761776Y-87070212D01*
X75883064Y-87280289D01*
X75883066Y-87280292D01*
X75883067Y-87280293D01*
X76030733Y-87472736D01*
X76030739Y-87472743D01*
X76202256Y-87644260D01*
X76202263Y-87644266D01*
X76315321Y-87731018D01*
X76394711Y-87791936D01*
X76604788Y-87913224D01*
X76828900Y-88006054D01*
X77063211Y-88068838D01*
X77243586Y-88092584D01*
X77303711Y-88100500D01*
X77303712Y-88100500D01*
X77546289Y-88100500D01*
X77594388Y-88094167D01*
X77786789Y-88068838D01*
X78021100Y-88006054D01*
X78245212Y-87913224D01*
X78455289Y-87791936D01*
X78647738Y-87644265D01*
X78819265Y-87472738D01*
X78966936Y-87280289D01*
X79088224Y-87070212D01*
X79181054Y-86846100D01*
X79243838Y-86611789D01*
X79275500Y-86371288D01*
X79275500Y-86128712D01*
X79269491Y-86083072D01*
X79252230Y-85951957D01*
X79243838Y-85888211D01*
X79181054Y-85653900D01*
X79088224Y-85429788D01*
X78966936Y-85219711D01*
X78819265Y-85027262D01*
X78819260Y-85027256D01*
X78647743Y-84855739D01*
X78647736Y-84855733D01*
X78455293Y-84708067D01*
X78455292Y-84708066D01*
X78455289Y-84708064D01*
X78245212Y-84586776D01*
X78245205Y-84586773D01*
X78021104Y-84493947D01*
X77786785Y-84431161D01*
X77546289Y-84399500D01*
X77546288Y-84399500D01*
X77303712Y-84399500D01*
X77303711Y-84399500D01*
X77063214Y-84431161D01*
X76828895Y-84493947D01*
X76604794Y-84586773D01*
X76604785Y-84586777D01*
X76394706Y-84708067D01*
X76202263Y-84855733D01*
X76202256Y-84855739D01*
X76030739Y-85027256D01*
X76030733Y-85027263D01*
X75883067Y-85219706D01*
X75761777Y-85429785D01*
X75761773Y-85429794D01*
X75668947Y-85653895D01*
X75606161Y-85888214D01*
X75574500Y-86128711D01*
X74431856Y-86128711D01*
X74441592Y-85942951D01*
X74442949Y-85930046D01*
X74479904Y-85696715D01*
X74490029Y-85632786D01*
X74492723Y-85620107D01*
X74570627Y-85329368D01*
X74574636Y-85317033D01*
X74682493Y-85036054D01*
X74687763Y-85024215D01*
X74824415Y-84756023D01*
X74830891Y-84744808D01*
X74994819Y-84492380D01*
X75002434Y-84481899D01*
X75191858Y-84247979D01*
X75200525Y-84238354D01*
X75413354Y-84025525D01*
X75422979Y-84016858D01*
X75656899Y-83827434D01*
X75667380Y-83819819D01*
X75919808Y-83655891D01*
X75931023Y-83649415D01*
X76199215Y-83512763D01*
X76211054Y-83507493D01*
X76492040Y-83399633D01*
X76504368Y-83395627D01*
X76795107Y-83317723D01*
X76807786Y-83315029D01*
X77105046Y-83267949D01*
X77117951Y-83266592D01*
X77421756Y-83250669D01*
X77428246Y-83250500D01*
X77490892Y-83250500D01*
X116159108Y-83250500D01*
X116221754Y-83250500D01*
X116228244Y-83250670D01*
G37*
%TD.AperFunction*%
%TD*%
M02*
