%TF.GenerationSoftware,KiCad,Pcbnew,9.0.0*%
%TF.CreationDate,2025-10-13T23:53:41-05:00*%
%TF.ProjectId,PS-PowerSelectorPCB,50532d50-6f77-4657-9253-656c6563746f,rev?*%
%TF.SameCoordinates,Original*%
%TF.FileFunction,Copper,L1,Top*%
%TF.FilePolarity,Positive*%
%FSLAX46Y46*%
G04 Gerber Fmt 4.6, Leading zero omitted, Abs format (unit mm)*
G04 Created by KiCad (PCBNEW 9.0.0) date 2025-10-13 23:53:41*
%MOMM*%
%LPD*%
G01*
G04 APERTURE LIST*
G04 Aperture macros list*
%AMRoundRect*
0 Rectangle with rounded corners*
0 $1 Rounding radius*
0 $2 $3 $4 $5 $6 $7 $8 $9 X,Y pos of 4 corners*
0 Add a 4 corners polygon primitive as box body*
4,1,4,$2,$3,$4,$5,$6,$7,$8,$9,$2,$3,0*
0 Add four circle primitives for the rounded corners*
1,1,$1+$1,$2,$3*
1,1,$1+$1,$4,$5*
1,1,$1+$1,$6,$7*
1,1,$1+$1,$8,$9*
0 Add four rect primitives between the rounded corners*
20,1,$1+$1,$2,$3,$4,$5,0*
20,1,$1+$1,$4,$5,$6,$7,0*
20,1,$1+$1,$6,$7,$8,$9,0*
20,1,$1+$1,$8,$9,$2,$3,0*%
%AMFreePoly0*
4,1,22,0.945671,0.830970,1.026777,0.776777,1.080970,0.695671,1.100000,0.600000,1.100000,-0.600000,1.080970,-0.695671,1.026777,-0.776777,0.945671,-0.830970,0.850000,-0.850000,-0.850000,-0.850000,-0.945671,-0.830970,-1.026777,-0.776777,-1.080970,-0.695671,-1.100000,-0.600000,-1.100000,0.200000,-1.080970,0.295671,-1.026777,0.376777,-0.626777,0.776777,-0.545671,0.830970,-0.450000,0.850000,
0.850000,0.850000,0.945671,0.830970,0.945671,0.830970,$1*%
G04 Aperture macros list end*
%TA.AperFunction,SMDPad,CuDef*%
%ADD10RoundRect,0.225000X0.225000X0.375000X-0.225000X0.375000X-0.225000X-0.375000X0.225000X-0.375000X0*%
%TD*%
%TA.AperFunction,ComponentPad*%
%ADD11R,3.000000X3.000000*%
%TD*%
%TA.AperFunction,ComponentPad*%
%ADD12C,3.000000*%
%TD*%
%TA.AperFunction,ComponentPad*%
%ADD13RoundRect,1.500000X-1.500000X1.500000X-1.500000X-1.500000X1.500000X-1.500000X1.500000X1.500000X0*%
%TD*%
%TA.AperFunction,ComponentPad*%
%ADD14C,6.000000*%
%TD*%
%TA.AperFunction,ComponentPad*%
%ADD15RoundRect,1.500000X-1.500000X-1.500000X1.500000X-1.500000X1.500000X1.500000X-1.500000X1.500000X0*%
%TD*%
%TA.AperFunction,ComponentPad*%
%ADD16C,2.400000*%
%TD*%
%TA.AperFunction,SMDPad,CuDef*%
%ADD17RoundRect,0.237500X-0.250000X-0.237500X0.250000X-0.237500X0.250000X0.237500X-0.250000X0.237500X0*%
%TD*%
%TA.AperFunction,ComponentPad*%
%ADD18RoundRect,0.250000X0.850000X0.600000X-0.850000X0.600000X-0.850000X-0.600000X0.850000X-0.600000X0*%
%TD*%
%TA.AperFunction,ComponentPad*%
%ADD19O,2.200000X1.700000*%
%TD*%
%TA.AperFunction,SMDPad,CuDef*%
%ADD20RoundRect,0.237500X-0.287500X-0.237500X0.287500X-0.237500X0.287500X0.237500X-0.287500X0.237500X0*%
%TD*%
%TA.AperFunction,ComponentPad*%
%ADD21FreePoly0,180.000000*%
%TD*%
%TA.AperFunction,ComponentPad*%
%ADD22C,2.775000*%
%TD*%
%TA.AperFunction,ComponentPad*%
%ADD23R,2.775000X2.775000*%
%TD*%
%TA.AperFunction,ViaPad*%
%ADD24C,0.600000*%
%TD*%
%TA.AperFunction,Conductor*%
%ADD25C,1.200000*%
%TD*%
%TA.AperFunction,Conductor*%
%ADD26C,0.500000*%
%TD*%
%TA.AperFunction,Conductor*%
%ADD27C,0.400000*%
%TD*%
G04 APERTURE END LIST*
D10*
%TO.P,D6,2,A*%
%TO.N,PS+*%
X104650000Y-99200000D03*
%TO.P,D6,1,K*%
%TO.N,/LED+*%
X107950000Y-99200000D03*
%TD*%
%TO.P,D7,2,A*%
%TO.N,/SC_Fused*%
X104650000Y-101700000D03*
%TO.P,D7,1,K*%
%TO.N,/LED+*%
X107950000Y-101700000D03*
%TD*%
D11*
%TO.P,J4,1,Pin_1*%
%TO.N,LV-*%
X115900000Y-93600000D03*
D12*
%TO.P,J4,2,Pin_2*%
%TO.N,PS+*%
X115900000Y-98600000D03*
%TD*%
D13*
%TO.P,J3,1,Pin_1*%
%TO.N,LV-*%
X114500000Y-108100000D03*
D14*
%TO.P,J3,2,Pin_2*%
%TO.N,SuppChargerOut+*%
X114500000Y-115300000D03*
%TD*%
%TO.P,J1,2,Pin_2*%
%TO.N,SuppChargerIn+*%
X92300000Y-90050000D03*
D15*
%TO.P,J1,1,Pin_1*%
%TO.N,LV-*%
X85100000Y-90050000D03*
%TD*%
D12*
%TO.P,J2,2,Pin_2*%
%TO.N,PS+*%
X106950000Y-87750000D03*
D11*
%TO.P,J2,1,Pin_1*%
%TO.N,LV-*%
X101950000Y-87750000D03*
%TD*%
D16*
%TO.P,F1,4*%
%TO.N,/SC_Fused*%
X100260000Y-101300000D03*
%TO.P,F1,3*%
%TO.N,SuppChargerIn+*%
X90340000Y-101300000D03*
%TO.P,F1,2*%
%TO.N,/SC_Fused*%
X100260000Y-97900000D03*
%TO.P,F1,1*%
%TO.N,SuppChargerIn+*%
X90340000Y-97900000D03*
%TD*%
D17*
%TO.P,R1,1*%
%TO.N,Net-(D1-K)*%
X84387500Y-107625000D03*
%TO.P,R1,2*%
%TO.N,LV-*%
X86212500Y-107625000D03*
%TD*%
%TO.P,R4,1*%
%TO.N,Net-(D4-K)*%
X100837500Y-107675000D03*
%TO.P,R4,2*%
%TO.N,/LV_EN_PS*%
X102662500Y-107675000D03*
%TD*%
D18*
%TO.P,J5,1,Pin_1*%
%TO.N,LV-*%
X78270000Y-105000000D03*
D19*
%TO.P,J5,2,Pin_2*%
%TO.N,/LV_EN_IN*%
X78270000Y-107500000D03*
%TO.P,J5,3,Pin_3*%
%TO.N,/HV_LO+*%
X78270000Y-110000000D03*
%TO.P,J5,4,Pin_4*%
%TO.N,/HV_LO-*%
X78270000Y-112500000D03*
%TO.P,J5,5,Pin_5*%
%TO.N,/LV_EN_SUPP*%
X78270000Y-115000000D03*
%TO.P,J5,6,Pin_6*%
%TO.N,/LV_EN_PS*%
X78270000Y-117500000D03*
%TD*%
D20*
%TO.P,D1,1,K*%
%TO.N,Net-(D1-K)*%
X84425000Y-106050000D03*
%TO.P,D1,2,A*%
%TO.N,SuppChargerIn+*%
X86175000Y-106050000D03*
%TD*%
D17*
%TO.P,R5,1*%
%TO.N,Net-(D5-K)*%
X89862500Y-107625000D03*
%TO.P,R5,2*%
%TO.N,/LV_EN_SUPP*%
X91687500Y-107625000D03*
%TD*%
D20*
%TO.P,D3,1,K*%
%TO.N,Net-(D3-K)*%
X95400000Y-106050000D03*
%TO.P,D3,2,A*%
%TO.N,/LED+*%
X97150000Y-106050000D03*
%TD*%
D17*
%TO.P,R3,1*%
%TO.N,Net-(D3-K)*%
X95337500Y-107625000D03*
%TO.P,R3,2*%
%TO.N,/LV_EN_FUSED*%
X97162500Y-107625000D03*
%TD*%
D20*
%TO.P,D4,1,K*%
%TO.N,Net-(D4-K)*%
X100887500Y-106100000D03*
%TO.P,D4,2,A*%
%TO.N,/LED+*%
X102637500Y-106100000D03*
%TD*%
D21*
%TO.P,J6,1,Pin_1*%
%TO.N,/HV_LO+*%
X78100000Y-96850000D03*
D19*
%TO.P,J6,2,Pin_2*%
%TO.N,/HV_LO-*%
X78100000Y-99350000D03*
%TD*%
D20*
%TO.P,D5,1,K*%
%TO.N,Net-(D5-K)*%
X89912500Y-106050000D03*
%TO.P,D5,2,A*%
%TO.N,/LED+*%
X91662500Y-106050000D03*
%TD*%
D17*
%TO.P,R2,1*%
%TO.N,Net-(D2-K)*%
X106312500Y-107625000D03*
%TO.P,R2,2*%
%TO.N,LV-*%
X108137500Y-107625000D03*
%TD*%
D20*
%TO.P,D2,1,K*%
%TO.N,Net-(D2-K)*%
X106375000Y-106050000D03*
%TO.P,D2,2,A*%
%TO.N,PS+*%
X108125000Y-106050000D03*
%TD*%
D22*
%TO.P,SW1,*%
%TO.N,*%
X88000000Y-115395000D03*
X88000000Y-118575000D03*
X103750000Y-115395000D03*
X103750000Y-118575000D03*
D23*
%TO.P,SW1,1,A*%
%TO.N,/LV_EN_SUPP*%
X91175000Y-114570000D03*
D22*
%TO.P,SW1,2,B*%
%TO.N,/LV_EN_FUSED*%
X95875000Y-114570000D03*
%TO.P,SW1,3,C*%
%TO.N,/LV_EN_PS*%
X100575000Y-114570000D03*
%TO.P,SW1,4,A*%
%TO.N,unconnected-(SW1B-A-Pad4)*%
X91175000Y-119400000D03*
%TO.P,SW1,5,B*%
%TO.N,/SC_Fused*%
X95875000Y-119400000D03*
%TO.P,SW1,6,C*%
%TO.N,SuppChargerOut+*%
X100575000Y-119400000D03*
%TD*%
D24*
%TO.N,/LV_EN_FUSED*%
X95900000Y-111550000D03*
%TO.N,/LV_EN_SUPP*%
X91200000Y-111550000D03*
%TD*%
D25*
%TO.N,LV-*%
X108137500Y-107625000D02*
X114025000Y-107625000D01*
X114025000Y-107625000D02*
X114500000Y-108100000D01*
D26*
%TO.N,/LED+*%
X107950000Y-101700000D02*
X107950000Y-99200000D01*
X101661500Y-105124000D02*
X104526000Y-105124000D01*
X104526000Y-105124000D02*
X107950000Y-101700000D01*
D25*
%TO.N,/SC_Fused*%
X104650000Y-101700000D02*
X100660000Y-101700000D01*
X100660000Y-101700000D02*
X100260000Y-101300000D01*
%TO.N,SuppChargerOut+*%
X100575000Y-119400000D02*
X101962500Y-120787500D01*
X101962500Y-120787500D02*
X109012500Y-120787500D01*
X109012500Y-120787500D02*
X114500000Y-115300000D01*
D27*
%TO.N,/HV_LO-*%
X78100000Y-99350000D02*
X76769000Y-100681000D01*
X76769000Y-100681000D02*
X76769000Y-110999000D01*
X76769000Y-110999000D02*
X78270000Y-112500000D01*
%TO.N,/LV_EN_PS*%
X100575000Y-114570000D02*
X100575000Y-109762500D01*
X100575000Y-109762500D02*
X102662500Y-107675000D01*
D26*
%TO.N,Net-(D1-K)*%
X84350000Y-106037500D02*
X84387500Y-106000000D01*
X84350000Y-107600000D02*
X84350000Y-106037500D01*
D25*
%TO.N,SuppChargerIn+*%
X90340000Y-101300000D02*
X90340000Y-101710000D01*
X90465000Y-101710000D02*
X86175000Y-106000000D01*
D26*
%TO.N,Net-(D2-K)*%
X106350000Y-106003750D02*
X106387500Y-105966250D01*
X106350000Y-107566250D02*
X106350000Y-106003750D01*
%TO.N,Net-(D3-K)*%
X95300000Y-107662500D02*
X95300000Y-106137500D01*
X95300000Y-106137500D02*
X95375000Y-106062500D01*
%TO.N,/LED+*%
X97150000Y-105124000D02*
X101661500Y-105124000D01*
X91662500Y-106050000D02*
X92588500Y-105124000D01*
X97150000Y-106050000D02*
X97150000Y-105124000D01*
X92588500Y-105124000D02*
X97150000Y-105124000D01*
X101661500Y-105124000D02*
X102637500Y-106100000D01*
%TO.N,Net-(D4-K)*%
X100825000Y-107671875D02*
X100825000Y-106128125D01*
X100825000Y-106128125D02*
X100881250Y-106071875D01*
%TO.N,Net-(D5-K)*%
X89850000Y-106178125D02*
X89956250Y-106071875D01*
X89850000Y-107671875D02*
X89850000Y-106178125D01*
%TO.N,/LV_EN_FUSED*%
X95900000Y-108575000D02*
X96775000Y-107700000D01*
X95900000Y-111550000D02*
X95900000Y-108575000D01*
%TO.N,/LV_EN_SUPP*%
X91200000Y-108112500D02*
X91687500Y-107625000D01*
X91200000Y-111550000D02*
X91200000Y-108112500D01*
%TD*%
%TA.AperFunction,Conductor*%
%TO.N,LV-*%
G36*
X95832550Y-83270185D02*
G01*
X95878305Y-83322989D01*
X95889509Y-83375094D01*
X95878695Y-85620097D01*
X95876085Y-86161844D01*
X95875903Y-86199699D01*
X95875903Y-86199700D01*
X95862890Y-88901083D01*
X95842882Y-88968027D01*
X95789859Y-89013527D01*
X95720653Y-89023137D01*
X95657238Y-88993807D01*
X95620231Y-88936483D01*
X95599850Y-88869295D01*
X95468231Y-88551538D01*
X95306100Y-88248213D01*
X95115019Y-87962240D01*
X94896828Y-87696373D01*
X94896827Y-87696372D01*
X94896823Y-87696367D01*
X94653632Y-87453176D01*
X94387765Y-87234985D01*
X94387764Y-87234984D01*
X94387760Y-87234981D01*
X94101787Y-87043900D01*
X94101782Y-87043897D01*
X94101775Y-87043893D01*
X93798469Y-86881772D01*
X93798464Y-86881770D01*
X93480706Y-86750150D01*
X93151572Y-86650308D01*
X92814248Y-86583210D01*
X92814249Y-86583210D01*
X92556456Y-86557821D01*
X92471969Y-86549500D01*
X92128031Y-86549500D01*
X92049966Y-86557188D01*
X91785750Y-86583210D01*
X91448427Y-86650308D01*
X91119293Y-86750150D01*
X90801535Y-86881770D01*
X90801530Y-86881772D01*
X90498224Y-87043893D01*
X90498206Y-87043904D01*
X90212248Y-87234975D01*
X90212234Y-87234985D01*
X89946367Y-87453176D01*
X89703176Y-87696367D01*
X89484985Y-87962234D01*
X89484975Y-87962248D01*
X89293904Y-88248206D01*
X89293893Y-88248224D01*
X89131772Y-88551530D01*
X89131770Y-88551535D01*
X89000150Y-88869293D01*
X88900308Y-89198427D01*
X88833210Y-89535750D01*
X88799500Y-89878034D01*
X88799500Y-90221965D01*
X88833210Y-90564249D01*
X88900308Y-90901572D01*
X89000150Y-91230706D01*
X89131770Y-91548464D01*
X89131772Y-91548469D01*
X89293893Y-91851775D01*
X89293904Y-91851793D01*
X89484975Y-92137751D01*
X89484985Y-92137765D01*
X89703176Y-92403632D01*
X89946367Y-92646823D01*
X89946372Y-92646827D01*
X89946373Y-92646828D01*
X90212240Y-92865019D01*
X90498213Y-93056100D01*
X90498222Y-93056105D01*
X90498224Y-93056106D01*
X90801530Y-93218227D01*
X90801532Y-93218227D01*
X90801538Y-93218231D01*
X91119295Y-93349850D01*
X91448422Y-93449690D01*
X91785750Y-93516789D01*
X92128031Y-93550500D01*
X92128034Y-93550500D01*
X92471966Y-93550500D01*
X92471969Y-93550500D01*
X92814250Y-93516789D01*
X93151578Y-93449690D01*
X93480705Y-93349850D01*
X93798462Y-93218231D01*
X94101787Y-93056100D01*
X94387760Y-92865019D01*
X94653627Y-92646828D01*
X94896828Y-92403627D01*
X95115019Y-92137760D01*
X95306100Y-91851787D01*
X95468231Y-91548462D01*
X95599850Y-91230705D01*
X95608978Y-91200611D01*
X95647272Y-91142176D01*
X95711084Y-91113718D01*
X95780151Y-91124276D01*
X95832546Y-91170499D01*
X95851637Y-91237205D01*
X95850138Y-91548462D01*
X95847724Y-92049700D01*
X95833055Y-95094999D01*
X95820093Y-97786114D01*
X95819922Y-97821668D01*
X95795270Y-102939386D01*
X95788957Y-104249826D01*
X95787312Y-104249818D01*
X95772379Y-104311464D01*
X95721828Y-104359697D01*
X95664971Y-104373500D01*
X92514576Y-104373500D01*
X92485742Y-104379234D01*
X92485743Y-104379235D01*
X92369593Y-104402339D01*
X92369583Y-104402342D01*
X92289581Y-104435479D01*
X92289582Y-104435480D01*
X92233002Y-104458917D01*
X92183770Y-104491811D01*
X92183771Y-104491812D01*
X92110081Y-104541049D01*
X91612949Y-105038181D01*
X91551626Y-105071666D01*
X91525269Y-105074500D01*
X91325831Y-105074500D01*
X91325812Y-105074501D01*
X91224747Y-105084825D01*
X91060984Y-105139092D01*
X91060981Y-105139093D01*
X90914148Y-105229661D01*
X90875181Y-105268629D01*
X90813858Y-105302114D01*
X90744166Y-105297130D01*
X90699819Y-105268629D01*
X90660851Y-105229661D01*
X90660850Y-105229660D01*
X90514016Y-105139092D01*
X90350253Y-105084826D01*
X90350251Y-105084825D01*
X90249178Y-105074500D01*
X89575830Y-105074500D01*
X89575812Y-105074501D01*
X89474747Y-105084825D01*
X89310984Y-105139092D01*
X89310981Y-105139093D01*
X89164148Y-105229661D01*
X89042161Y-105351648D01*
X88951593Y-105498481D01*
X88951592Y-105498484D01*
X88897326Y-105662247D01*
X88897326Y-105662248D01*
X88897325Y-105662248D01*
X88887000Y-105763315D01*
X88887000Y-106336669D01*
X88887001Y-106336687D01*
X88897325Y-106437752D01*
X88899861Y-106445404D01*
X88950230Y-106597407D01*
X88951592Y-106601515D01*
X88951593Y-106601518D01*
X89042161Y-106748352D01*
X89046638Y-106754013D01*
X89044154Y-106755976D01*
X89070864Y-106804892D01*
X89065880Y-106874584D01*
X89037379Y-106918931D01*
X89029661Y-106926648D01*
X88939093Y-107073481D01*
X88939092Y-107073484D01*
X88884826Y-107237247D01*
X88884826Y-107237248D01*
X88884825Y-107237248D01*
X88874500Y-107338315D01*
X88874500Y-107911669D01*
X88874501Y-107911687D01*
X88884825Y-108012752D01*
X88904436Y-108071932D01*
X88939092Y-108176516D01*
X89029660Y-108323350D01*
X89151650Y-108445340D01*
X89298484Y-108535908D01*
X89462247Y-108590174D01*
X89563323Y-108600500D01*
X90161676Y-108600499D01*
X90161684Y-108600498D01*
X90161687Y-108600498D01*
X90217030Y-108594844D01*
X90262753Y-108590174D01*
X90286494Y-108582307D01*
X90356322Y-108579904D01*
X90416365Y-108615634D01*
X90447558Y-108678154D01*
X90449500Y-108700012D01*
X90449500Y-111245396D01*
X90440062Y-111292844D01*
X90430263Y-111316503D01*
X90430262Y-111316506D01*
X90430260Y-111316511D01*
X90399500Y-111471153D01*
X90399500Y-111628846D01*
X90430261Y-111783489D01*
X90430264Y-111783501D01*
X90490602Y-111929172D01*
X90490609Y-111929185D01*
X90578210Y-112060288D01*
X90578213Y-112060292D01*
X90689707Y-112171786D01*
X90689711Y-112171789D01*
X90820814Y-112259390D01*
X90820827Y-112259397D01*
X90904126Y-112293900D01*
X90966503Y-112319737D01*
X91121153Y-112350499D01*
X91121156Y-112350500D01*
X91121158Y-112350500D01*
X91278844Y-112350500D01*
X91278845Y-112350499D01*
X91433497Y-112319737D01*
X91579179Y-112259394D01*
X91710289Y-112171789D01*
X91821789Y-112060289D01*
X91909394Y-111929179D01*
X91969737Y-111783497D01*
X92000500Y-111628842D01*
X92000500Y-111471158D01*
X92000500Y-111471155D01*
X92000499Y-111471153D01*
X91969739Y-111316511D01*
X91969738Y-111316508D01*
X91969737Y-111316503D01*
X91959937Y-111292844D01*
X91950500Y-111245396D01*
X91950500Y-108716173D01*
X91970185Y-108649134D01*
X92022989Y-108603379D01*
X92061899Y-108592815D01*
X92065749Y-108592421D01*
X92087753Y-108590174D01*
X92251516Y-108535908D01*
X92398350Y-108445340D01*
X92520340Y-108323350D01*
X92610908Y-108176516D01*
X92665174Y-108012753D01*
X92675500Y-107911677D01*
X92675499Y-107338324D01*
X92665174Y-107237247D01*
X92610908Y-107073484D01*
X92520340Y-106926650D01*
X92520339Y-106926649D01*
X92520338Y-106926647D01*
X92515862Y-106920987D01*
X92518345Y-106919023D01*
X92491636Y-106870108D01*
X92496620Y-106800416D01*
X92525121Y-106756069D01*
X92527177Y-106754013D01*
X92532840Y-106748350D01*
X92623408Y-106601516D01*
X92677674Y-106437753D01*
X92688000Y-106336677D01*
X92687999Y-106137229D01*
X92696643Y-106107787D01*
X92703167Y-106077801D01*
X92706920Y-106072787D01*
X92707683Y-106070190D01*
X92724308Y-106049558D01*
X92863050Y-105910817D01*
X92924373Y-105877334D01*
X92950730Y-105874500D01*
X94250500Y-105874500D01*
X94317539Y-105894185D01*
X94363294Y-105946989D01*
X94374500Y-105998500D01*
X94374500Y-106336668D01*
X94374501Y-106336687D01*
X94384825Y-106437752D01*
X94387361Y-106445404D01*
X94437730Y-106597407D01*
X94439092Y-106601515D01*
X94439096Y-106601524D01*
X94531038Y-106750584D01*
X94535733Y-106767141D01*
X94544477Y-106780746D01*
X94549500Y-106815681D01*
X94549500Y-106830448D01*
X94529815Y-106897487D01*
X94513181Y-106918129D01*
X94504661Y-106926648D01*
X94414093Y-107073481D01*
X94414092Y-107073484D01*
X94359826Y-107237247D01*
X94359826Y-107237248D01*
X94359825Y-107237248D01*
X94349500Y-107338315D01*
X94349500Y-107911669D01*
X94349501Y-107911687D01*
X94359825Y-108012752D01*
X94379436Y-108071932D01*
X94414092Y-108176516D01*
X94504660Y-108323350D01*
X94626650Y-108445340D01*
X94773484Y-108535908D01*
X94937247Y-108590174D01*
X95038103Y-108600477D01*
X95102794Y-108626873D01*
X95142945Y-108684053D01*
X95149500Y-108723835D01*
X95149500Y-111245396D01*
X95140062Y-111292844D01*
X95130263Y-111316503D01*
X95130262Y-111316506D01*
X95130260Y-111316511D01*
X95099500Y-111471153D01*
X95099500Y-111628846D01*
X95130261Y-111783489D01*
X95130264Y-111783501D01*
X95190602Y-111929172D01*
X95190609Y-111929185D01*
X95278210Y-112060288D01*
X95278213Y-112060292D01*
X95389707Y-112171786D01*
X95389711Y-112171789D01*
X95520814Y-112259390D01*
X95520827Y-112259397D01*
X95604126Y-112293900D01*
X95666503Y-112319737D01*
X95821153Y-112350499D01*
X95821156Y-112350500D01*
X95821158Y-112350500D01*
X95978844Y-112350500D01*
X95978845Y-112350499D01*
X96133497Y-112319737D01*
X96279179Y-112259394D01*
X96410289Y-112171789D01*
X96521789Y-112060289D01*
X96609394Y-111929179D01*
X96669737Y-111783497D01*
X96700500Y-111628842D01*
X96700500Y-111471158D01*
X96700500Y-111471155D01*
X96700499Y-111471153D01*
X96669739Y-111316511D01*
X96669738Y-111316508D01*
X96669737Y-111316503D01*
X96659937Y-111292844D01*
X96650500Y-111245396D01*
X96650500Y-110519722D01*
X96670185Y-110452683D01*
X96722989Y-110406928D01*
X96774500Y-110395722D01*
X99750500Y-110395722D01*
X99817539Y-110415407D01*
X99863294Y-110468211D01*
X99874500Y-110519722D01*
X99874500Y-112733745D01*
X99854815Y-112800784D01*
X99802011Y-112846539D01*
X99797954Y-112848306D01*
X99738166Y-112873071D01*
X99738159Y-112873074D01*
X99523840Y-112996812D01*
X99523824Y-112996823D01*
X99327485Y-113147479D01*
X99327478Y-113147485D01*
X99152485Y-113322478D01*
X99152479Y-113322485D01*
X99001823Y-113518824D01*
X99001812Y-113518840D01*
X98878074Y-113733159D01*
X98878069Y-113733170D01*
X98783361Y-113961815D01*
X98719303Y-114200882D01*
X98687001Y-114446243D01*
X98687000Y-114446260D01*
X98687000Y-114693739D01*
X98687001Y-114693756D01*
X98719303Y-114939117D01*
X98783361Y-115178184D01*
X98878069Y-115406829D01*
X98878074Y-115406840D01*
X99001812Y-115621159D01*
X99001823Y-115621175D01*
X99152479Y-115817514D01*
X99152485Y-115817521D01*
X99327478Y-115992514D01*
X99327485Y-115992520D01*
X99467305Y-116099807D01*
X99523833Y-116143183D01*
X99523840Y-116143187D01*
X99738159Y-116266925D01*
X99738164Y-116266927D01*
X99738167Y-116266929D01*
X99966820Y-116361640D01*
X100205879Y-116425696D01*
X100451254Y-116458000D01*
X100451261Y-116458000D01*
X100698739Y-116458000D01*
X100698746Y-116458000D01*
X100944121Y-116425696D01*
X101183180Y-116361640D01*
X101411833Y-116266929D01*
X101626167Y-116143183D01*
X101794042Y-116014367D01*
X101859208Y-115989175D01*
X101927653Y-116003213D01*
X101977643Y-116052027D01*
X101984087Y-116065292D01*
X102053069Y-116231829D01*
X102053074Y-116231840D01*
X102176812Y-116446159D01*
X102176823Y-116446175D01*
X102327479Y-116642514D01*
X102327485Y-116642521D01*
X102502478Y-116817514D01*
X102502482Y-116817517D01*
X102502484Y-116817519D01*
X102557960Y-116860087D01*
X102592543Y-116886624D01*
X102633745Y-116943052D01*
X102637900Y-117012798D01*
X102603687Y-117073719D01*
X102592543Y-117083376D01*
X102502478Y-117152485D01*
X102327485Y-117327478D01*
X102327479Y-117327485D01*
X102176823Y-117523824D01*
X102176812Y-117523840D01*
X102053074Y-117738159D01*
X102053069Y-117738171D01*
X101984087Y-117904707D01*
X101940246Y-117959110D01*
X101873951Y-117981175D01*
X101806252Y-117963896D01*
X101794040Y-117955630D01*
X101626175Y-117826823D01*
X101626173Y-117826821D01*
X101626167Y-117826817D01*
X101626162Y-117826814D01*
X101626159Y-117826812D01*
X101411840Y-117703074D01*
X101411829Y-117703069D01*
X101183184Y-117608361D01*
X100944117Y-117544303D01*
X100698756Y-117512001D01*
X100698751Y-117512000D01*
X100698746Y-117512000D01*
X100451254Y-117512000D01*
X100451248Y-117512000D01*
X100451243Y-117512001D01*
X100205882Y-117544303D01*
X99966815Y-117608361D01*
X99738170Y-117703069D01*
X99738159Y-117703074D01*
X99523840Y-117826812D01*
X99523824Y-117826823D01*
X99327485Y-117977479D01*
X99327478Y-117977485D01*
X99152485Y-118152478D01*
X99152479Y-118152485D01*
X99001823Y-118348824D01*
X99001812Y-118348840D01*
X98878074Y-118563159D01*
X98878069Y-118563170D01*
X98783361Y-118791815D01*
X98719303Y-119030882D01*
X98687001Y-119276243D01*
X98687000Y-119276260D01*
X98687000Y-119523739D01*
X98687001Y-119523756D01*
X98719303Y-119769117D01*
X98783361Y-120008184D01*
X98878069Y-120236829D01*
X98878074Y-120236840D01*
X99001812Y-120451159D01*
X99001823Y-120451175D01*
X99152479Y-120647514D01*
X99152485Y-120647521D01*
X99327478Y-120822514D01*
X99327484Y-120822519D01*
X99523833Y-120973183D01*
X99523840Y-120973187D01*
X99738159Y-121096925D01*
X99738164Y-121096927D01*
X99738167Y-121096929D01*
X99966820Y-121191640D01*
X100205879Y-121255696D01*
X100451254Y-121288000D01*
X100451261Y-121288000D01*
X100698739Y-121288000D01*
X100698746Y-121288000D01*
X100821845Y-121271793D01*
X100890877Y-121282558D01*
X100925709Y-121307051D01*
X101245572Y-121626914D01*
X101385712Y-121728732D01*
X101439545Y-121756161D01*
X101540049Y-121807371D01*
X101540051Y-121807371D01*
X101540054Y-121807373D01*
X101630547Y-121836776D01*
X101667673Y-121848839D01*
X101704798Y-121860902D01*
X101790344Y-121874451D01*
X101875889Y-121888000D01*
X101875890Y-121888000D01*
X109099110Y-121888000D01*
X109099111Y-121888000D01*
X109270201Y-121860902D01*
X109434945Y-121807373D01*
X109589288Y-121728732D01*
X109729428Y-121626914D01*
X112862781Y-118493559D01*
X112924102Y-118460076D01*
X112993794Y-118465060D01*
X112998698Y-118467131D01*
X112998726Y-118467066D01*
X113001536Y-118468229D01*
X113001538Y-118468231D01*
X113319295Y-118599850D01*
X113648422Y-118699690D01*
X113985750Y-118766789D01*
X114328031Y-118800500D01*
X114328034Y-118800500D01*
X114671966Y-118800500D01*
X114671969Y-118800500D01*
X115014250Y-118766789D01*
X115351578Y-118699690D01*
X115680705Y-118599850D01*
X115998462Y-118468231D01*
X116301787Y-118306100D01*
X116587760Y-118115019D01*
X116853627Y-117896828D01*
X117096828Y-117653627D01*
X117315019Y-117387760D01*
X117506100Y-117101787D01*
X117668231Y-116798462D01*
X117799850Y-116480705D01*
X117899690Y-116151578D01*
X117966789Y-115814250D01*
X118000500Y-115471969D01*
X118000500Y-115128031D01*
X117966789Y-114785750D01*
X117899690Y-114448422D01*
X117799850Y-114119295D01*
X117668231Y-113801538D01*
X117664730Y-113794989D01*
X117506106Y-113498224D01*
X117506105Y-113498222D01*
X117506100Y-113498213D01*
X117315019Y-113212240D01*
X117096828Y-112946373D01*
X117096827Y-112946372D01*
X117096823Y-112946367D01*
X116853632Y-112703176D01*
X116587765Y-112484985D01*
X116587764Y-112484984D01*
X116587760Y-112484981D01*
X116301787Y-112293900D01*
X116301782Y-112293897D01*
X116301775Y-112293893D01*
X115998469Y-112131772D01*
X115998464Y-112131770D01*
X115986057Y-112126631D01*
X115825894Y-112060289D01*
X115680706Y-112000150D01*
X115351572Y-111900308D01*
X115014248Y-111833210D01*
X115014249Y-111833210D01*
X114756456Y-111807821D01*
X114671969Y-111799500D01*
X114328031Y-111799500D01*
X114249966Y-111807188D01*
X113985750Y-111833210D01*
X113648427Y-111900308D01*
X113319293Y-112000150D01*
X113001535Y-112131770D01*
X113001530Y-112131772D01*
X112698224Y-112293893D01*
X112698206Y-112293904D01*
X112412248Y-112484975D01*
X112412234Y-112484985D01*
X112146367Y-112703176D01*
X111903176Y-112946367D01*
X111684985Y-113212234D01*
X111684975Y-113212248D01*
X111493904Y-113498206D01*
X111493893Y-113498224D01*
X111331772Y-113801530D01*
X111331770Y-113801535D01*
X111200150Y-114119293D01*
X111100308Y-114448427D01*
X111033210Y-114785750D01*
X111007188Y-115049966D01*
X110999500Y-115128031D01*
X110999500Y-115471969D01*
X111004107Y-115518746D01*
X111033210Y-115814249D01*
X111100308Y-116151572D01*
X111200150Y-116480706D01*
X111332934Y-116801274D01*
X111331696Y-116801786D01*
X111341710Y-116865612D01*
X111313501Y-116929534D01*
X111306437Y-116937219D01*
X108592977Y-119650681D01*
X108531654Y-119684166D01*
X108505296Y-119687000D01*
X105502836Y-119687000D01*
X105435797Y-119667315D01*
X105390042Y-119614511D01*
X105380098Y-119545353D01*
X105395449Y-119501000D01*
X105446925Y-119411840D01*
X105446925Y-119411839D01*
X105446929Y-119411833D01*
X105541640Y-119183180D01*
X105605696Y-118944121D01*
X105638000Y-118698746D01*
X105638000Y-118451254D01*
X105605696Y-118205879D01*
X105541640Y-117966820D01*
X105446929Y-117738167D01*
X105446927Y-117738164D01*
X105446925Y-117738159D01*
X105323187Y-117523840D01*
X105323183Y-117523833D01*
X105218774Y-117387765D01*
X105172520Y-117327485D01*
X105172514Y-117327478D01*
X104997521Y-117152485D01*
X104997514Y-117152479D01*
X104907457Y-117083376D01*
X104866254Y-117026948D01*
X104862099Y-116957202D01*
X104896311Y-116896282D01*
X104907457Y-116886624D01*
X104935902Y-116864796D01*
X104997516Y-116817519D01*
X105172519Y-116642516D01*
X105323183Y-116446167D01*
X105446929Y-116231833D01*
X105541640Y-116003180D01*
X105605696Y-115764121D01*
X105638000Y-115518746D01*
X105638000Y-115271254D01*
X105605696Y-115025879D01*
X105541640Y-114786820D01*
X105446929Y-114558167D01*
X105446927Y-114558164D01*
X105446925Y-114558159D01*
X105323187Y-114343840D01*
X105323183Y-114343833D01*
X105213493Y-114200882D01*
X105172520Y-114147485D01*
X105172514Y-114147478D01*
X104997521Y-113972485D01*
X104997514Y-113972479D01*
X104801175Y-113821823D01*
X104801173Y-113821821D01*
X104801167Y-113821817D01*
X104801162Y-113821814D01*
X104801159Y-113821812D01*
X104586840Y-113698074D01*
X104586829Y-113698069D01*
X104358184Y-113603361D01*
X104119117Y-113539303D01*
X103873756Y-113507001D01*
X103873751Y-113507000D01*
X103873746Y-113507000D01*
X103626254Y-113507000D01*
X103626248Y-113507000D01*
X103626243Y-113507001D01*
X103380882Y-113539303D01*
X103141815Y-113603361D01*
X102913170Y-113698069D01*
X102913159Y-113698074D01*
X102698840Y-113821812D01*
X102698824Y-113821823D01*
X102530959Y-113950630D01*
X102465790Y-113975824D01*
X102397345Y-113961785D01*
X102347355Y-113912971D01*
X102340912Y-113899707D01*
X102320201Y-113849707D01*
X102271929Y-113733167D01*
X102271927Y-113733164D01*
X102271925Y-113733159D01*
X102148187Y-113518840D01*
X102148183Y-113518833D01*
X102041493Y-113379792D01*
X101997520Y-113322485D01*
X101997514Y-113322478D01*
X101822521Y-113147485D01*
X101822514Y-113147479D01*
X101626175Y-112996823D01*
X101626173Y-112996821D01*
X101626167Y-112996817D01*
X101626162Y-112996814D01*
X101626159Y-112996812D01*
X101411840Y-112873074D01*
X101411833Y-112873071D01*
X101352046Y-112848306D01*
X101297643Y-112804464D01*
X101275579Y-112738170D01*
X101275500Y-112733745D01*
X101275500Y-110433268D01*
X101295185Y-110366229D01*
X101347989Y-110320474D01*
X101417147Y-110310530D01*
X101451010Y-110320473D01*
X101527838Y-110355560D01*
X101594877Y-110375245D01*
X101594881Y-110375246D01*
X101737297Y-110395722D01*
X101737300Y-110395722D01*
X110881959Y-110395722D01*
X110881962Y-110395722D01*
X111006977Y-110380019D01*
X111049630Y-110369132D01*
X111066393Y-110364854D01*
X111066394Y-110364853D01*
X111066404Y-110364851D01*
X111183654Y-110318718D01*
X111298835Y-110232493D01*
X111348240Y-110183087D01*
X111434460Y-110067909D01*
X111484742Y-109933101D01*
X111499594Y-109864828D01*
X111499594Y-109864825D01*
X111499685Y-109863979D01*
X111499700Y-109863329D01*
X111509858Y-109721311D01*
X111505000Y-109653391D01*
X111505000Y-108849500D01*
X111493447Y-108742044D01*
X111482241Y-108690533D01*
X111473270Y-108663580D01*
X111448116Y-108588002D01*
X111448113Y-108587996D01*
X111410907Y-108530103D01*
X111370325Y-108466957D01*
X111351592Y-108445338D01*
X111324576Y-108414159D01*
X111324572Y-108414156D01*
X111324570Y-108414153D01*
X111215836Y-108319933D01*
X111215833Y-108319931D01*
X111215831Y-108319930D01*
X111084965Y-108260164D01*
X111084960Y-108260162D01*
X111084959Y-108260162D01*
X111017920Y-108240477D01*
X111017922Y-108240477D01*
X111017917Y-108240476D01*
X110970444Y-108233650D01*
X110875500Y-108220000D01*
X110875498Y-108220000D01*
X108100427Y-108220000D01*
X108081029Y-108218473D01*
X108007816Y-108206877D01*
X107988895Y-108202335D01*
X107918378Y-108179422D01*
X107900403Y-108171976D01*
X107834348Y-108138320D01*
X107817756Y-108128152D01*
X107757769Y-108084568D01*
X107742974Y-108071932D01*
X107657550Y-107986508D01*
X107657532Y-107986491D01*
X107573414Y-107918704D01*
X107573409Y-107918700D01*
X107573407Y-107918699D01*
X107573405Y-107918697D01*
X107529058Y-107890196D01*
X107529059Y-107890196D01*
X107529052Y-107890192D01*
X107432410Y-107841817D01*
X107398139Y-107834362D01*
X107336817Y-107800876D01*
X107303332Y-107739553D01*
X107300499Y-107713196D01*
X107300499Y-107344227D01*
X107320184Y-107277188D01*
X107372988Y-107231433D01*
X107435111Y-107220682D01*
X107503594Y-107226566D01*
X107644609Y-107197997D01*
X107710416Y-107174519D01*
X107710432Y-107174513D01*
X107741937Y-107157888D01*
X107743884Y-107156885D01*
X107789945Y-107133675D01*
X107790200Y-107134174D01*
X107900743Y-107077848D01*
X107900902Y-107077769D01*
X107901102Y-107077732D01*
X107918372Y-107070578D01*
X107988900Y-107047662D01*
X108007801Y-107043125D01*
X108056831Y-107035359D01*
X108081041Y-107031526D01*
X108100436Y-107030000D01*
X110884336Y-107030000D01*
X110884342Y-107030000D01*
X110974092Y-107021969D01*
X111017426Y-107014151D01*
X111104336Y-106990308D01*
X111230616Y-106921352D01*
X111286549Y-106879480D01*
X111388282Y-106777746D01*
X111457237Y-106651465D01*
X111481654Y-106586001D01*
X111481656Y-106585996D01*
X111512238Y-106445404D01*
X111516303Y-106388551D01*
X111517584Y-106381675D01*
X111517879Y-106381092D01*
X111518319Y-106378032D01*
X111560007Y-106186395D01*
X111564984Y-106169444D01*
X111633533Y-105985657D01*
X111640872Y-105969588D01*
X111734869Y-105797446D01*
X111744425Y-105782577D01*
X111861959Y-105625570D01*
X111873533Y-105612213D01*
X112012213Y-105473533D01*
X112025570Y-105461959D01*
X112182577Y-105344425D01*
X112197446Y-105334869D01*
X112369588Y-105240872D01*
X112385657Y-105233533D01*
X112569444Y-105164984D01*
X112586395Y-105160007D01*
X112778030Y-105118320D01*
X112795532Y-105115803D01*
X112942182Y-105105315D01*
X112951027Y-105105000D01*
X116048970Y-105105000D01*
X116057814Y-105105315D01*
X116204463Y-105115803D01*
X116221969Y-105118320D01*
X116413598Y-105160006D01*
X116430557Y-105164985D01*
X116614332Y-105233530D01*
X116630412Y-105240874D01*
X116742564Y-105302114D01*
X116802543Y-105334865D01*
X116817426Y-105344430D01*
X116974420Y-105461954D01*
X116987791Y-105473540D01*
X117126457Y-105612206D01*
X117138043Y-105625577D01*
X117255567Y-105782571D01*
X117265132Y-105797454D01*
X117359121Y-105969581D01*
X117366470Y-105985673D01*
X117397994Y-106070190D01*
X117435008Y-106169428D01*
X117439992Y-106186404D01*
X117481677Y-106378029D01*
X117484195Y-106395540D01*
X117494684Y-106542185D01*
X117495000Y-106551032D01*
X117495000Y-109648962D01*
X117494684Y-109657808D01*
X117490142Y-109721314D01*
X117490142Y-109721322D01*
X117496885Y-109847121D01*
X117496886Y-109847132D01*
X117500079Y-109864828D01*
X117507776Y-109907488D01*
X117545425Y-110027726D01*
X117595913Y-110106286D01*
X117623209Y-110148759D01*
X117623217Y-110148770D01*
X117668961Y-110201562D01*
X117668964Y-110201565D01*
X117668968Y-110201569D01*
X117777702Y-110295789D01*
X117777705Y-110295790D01*
X117777706Y-110295791D01*
X117827903Y-110318716D01*
X117908579Y-110355560D01*
X117975618Y-110375245D01*
X117975622Y-110375246D01*
X118118038Y-110395722D01*
X118118041Y-110395722D01*
X119100500Y-110395722D01*
X119167539Y-110415407D01*
X119213294Y-110468211D01*
X119224500Y-110519722D01*
X119224500Y-123596753D01*
X119224330Y-123603243D01*
X119208407Y-123907046D01*
X119207050Y-123919953D01*
X119159971Y-124217205D01*
X119157273Y-124229902D01*
X119079374Y-124520623D01*
X119075363Y-124532966D01*
X118967510Y-124813935D01*
X118962231Y-124825793D01*
X118825591Y-125093963D01*
X118819101Y-125105203D01*
X118655187Y-125357608D01*
X118647558Y-125368109D01*
X118458149Y-125602010D01*
X118449464Y-125611655D01*
X118236655Y-125824464D01*
X118227010Y-125833149D01*
X117993109Y-126022558D01*
X117982608Y-126030187D01*
X117730203Y-126194101D01*
X117718963Y-126200591D01*
X117450793Y-126337231D01*
X117438935Y-126342510D01*
X117157966Y-126450363D01*
X117145623Y-126454374D01*
X116854902Y-126532273D01*
X116842205Y-126534971D01*
X116544953Y-126582050D01*
X116532046Y-126583407D01*
X116228244Y-126599330D01*
X116221754Y-126599500D01*
X77428246Y-126599500D01*
X77421756Y-126599330D01*
X77117953Y-126583407D01*
X77105046Y-126582050D01*
X76807794Y-126534971D01*
X76795097Y-126532273D01*
X76504376Y-126454374D01*
X76492033Y-126450363D01*
X76211064Y-126342510D01*
X76199206Y-126337231D01*
X75931036Y-126200591D01*
X75919796Y-126194101D01*
X75667391Y-126030187D01*
X75656890Y-126022558D01*
X75422989Y-125833149D01*
X75413344Y-125824464D01*
X75200535Y-125611655D01*
X75191850Y-125602010D01*
X75002441Y-125368109D01*
X74994812Y-125357608D01*
X74977566Y-125331052D01*
X74830896Y-125105199D01*
X74824408Y-125093963D01*
X74760871Y-124969266D01*
X74687767Y-124825790D01*
X74682489Y-124813935D01*
X74574636Y-124532966D01*
X74570625Y-124520623D01*
X74492726Y-124229902D01*
X74490028Y-124217205D01*
X74482726Y-124171104D01*
X74442949Y-123919953D01*
X74441592Y-123907046D01*
X74425670Y-123603243D01*
X74425500Y-123596753D01*
X74425500Y-123453711D01*
X75574500Y-123453711D01*
X75574500Y-123696288D01*
X75606161Y-123936785D01*
X75668947Y-124171104D01*
X75730707Y-124320205D01*
X75761776Y-124395212D01*
X75883064Y-124605289D01*
X75883066Y-124605292D01*
X75883067Y-124605293D01*
X76030733Y-124797736D01*
X76030739Y-124797743D01*
X76202256Y-124969260D01*
X76202262Y-124969265D01*
X76394711Y-125116936D01*
X76604788Y-125238224D01*
X76828900Y-125331054D01*
X77063211Y-125393838D01*
X77243586Y-125417584D01*
X77303711Y-125425500D01*
X77303712Y-125425500D01*
X77546289Y-125425500D01*
X77594388Y-125419167D01*
X77786789Y-125393838D01*
X78021100Y-125331054D01*
X78245212Y-125238224D01*
X78455289Y-125116936D01*
X78647738Y-124969265D01*
X78819265Y-124797738D01*
X78966936Y-124605289D01*
X79088224Y-124395212D01*
X79181054Y-124171100D01*
X79243838Y-123936789D01*
X79275500Y-123696288D01*
X79275500Y-123453712D01*
X79275500Y-123453710D01*
X79267223Y-123390837D01*
X79265627Y-123378711D01*
X114299500Y-123378711D01*
X114299500Y-123621288D01*
X114331161Y-123861785D01*
X114393947Y-124096104D01*
X114444109Y-124217205D01*
X114486776Y-124320212D01*
X114608064Y-124530289D01*
X114608066Y-124530292D01*
X114608067Y-124530293D01*
X114755733Y-124722736D01*
X114755739Y-124722743D01*
X114927256Y-124894260D01*
X114927262Y-124894265D01*
X115119711Y-125041936D01*
X115329788Y-125163224D01*
X115553900Y-125256054D01*
X115788211Y-125318838D01*
X115968586Y-125342584D01*
X116028711Y-125350500D01*
X116028712Y-125350500D01*
X116271289Y-125350500D01*
X116319388Y-125344167D01*
X116511789Y-125318838D01*
X116746100Y-125256054D01*
X116970212Y-125163224D01*
X117180289Y-125041936D01*
X117372738Y-124894265D01*
X117544265Y-124722738D01*
X117691936Y-124530289D01*
X117813224Y-124320212D01*
X117906054Y-124096100D01*
X117968838Y-123861789D01*
X118000500Y-123621288D01*
X118000500Y-123378712D01*
X117968838Y-123138211D01*
X117906054Y-122903900D01*
X117813224Y-122679788D01*
X117691936Y-122469711D01*
X117544265Y-122277262D01*
X117544260Y-122277256D01*
X117372743Y-122105739D01*
X117372736Y-122105733D01*
X117180293Y-121958067D01*
X117180292Y-121958066D01*
X117180289Y-121958064D01*
X116970212Y-121836776D01*
X116927169Y-121818947D01*
X116746104Y-121743947D01*
X116511785Y-121681161D01*
X116271289Y-121649500D01*
X116271288Y-121649500D01*
X116028712Y-121649500D01*
X116028711Y-121649500D01*
X115788214Y-121681161D01*
X115553895Y-121743947D01*
X115329794Y-121836773D01*
X115329788Y-121836776D01*
X115199883Y-121911777D01*
X115119706Y-121958067D01*
X114927263Y-122105733D01*
X114927256Y-122105739D01*
X114755739Y-122277256D01*
X114755733Y-122277263D01*
X114608067Y-122469706D01*
X114486777Y-122679785D01*
X114486773Y-122679794D01*
X114393947Y-122903895D01*
X114331161Y-123138214D01*
X114299500Y-123378711D01*
X79265627Y-123378711D01*
X79243838Y-123213214D01*
X79243838Y-123213211D01*
X79181054Y-122978900D01*
X79088224Y-122754788D01*
X78966936Y-122544711D01*
X78819265Y-122352262D01*
X78819260Y-122352256D01*
X78647743Y-122180739D01*
X78647736Y-122180733D01*
X78455293Y-122033067D01*
X78455292Y-122033066D01*
X78455289Y-122033064D01*
X78245212Y-121911776D01*
X78187812Y-121888000D01*
X78021104Y-121818947D01*
X77786785Y-121756161D01*
X77546289Y-121724500D01*
X77546288Y-121724500D01*
X77303712Y-121724500D01*
X77303711Y-121724500D01*
X77063214Y-121756161D01*
X76828895Y-121818947D01*
X76604794Y-121911773D01*
X76604785Y-121911777D01*
X76394706Y-122033067D01*
X76202263Y-122180733D01*
X76202256Y-122180739D01*
X76030739Y-122352256D01*
X76030733Y-122352263D01*
X75883067Y-122544706D01*
X75761777Y-122754785D01*
X75761773Y-122754794D01*
X75668947Y-122978895D01*
X75606161Y-123213214D01*
X75574500Y-123453711D01*
X74425500Y-123453711D01*
X74425500Y-111067996D01*
X76068499Y-111067996D01*
X76095418Y-111203322D01*
X76095421Y-111203332D01*
X76148222Y-111330807D01*
X76224887Y-111445545D01*
X76224888Y-111445546D01*
X76712868Y-111933525D01*
X76746353Y-111994848D01*
X76743118Y-112059523D01*
X76702754Y-112183753D01*
X76669500Y-112393713D01*
X76669500Y-112606286D01*
X76700305Y-112800784D01*
X76702754Y-112816243D01*
X76761428Y-112996823D01*
X76768444Y-113018414D01*
X76864951Y-113207820D01*
X76989890Y-113379786D01*
X77140209Y-113530105D01*
X77140214Y-113530109D01*
X77304793Y-113649682D01*
X77347459Y-113705011D01*
X77353438Y-113774625D01*
X77320833Y-113836420D01*
X77304793Y-113850318D01*
X77140214Y-113969890D01*
X77140209Y-113969894D01*
X76989890Y-114120213D01*
X76864951Y-114292179D01*
X76768444Y-114481585D01*
X76702753Y-114683760D01*
X76701170Y-114693756D01*
X76669500Y-114893713D01*
X76669500Y-115106287D01*
X76679534Y-115169644D01*
X76695626Y-115271243D01*
X76702754Y-115316243D01*
X76753351Y-115471965D01*
X76768444Y-115518414D01*
X76864951Y-115707820D01*
X76989890Y-115879786D01*
X77140209Y-116030105D01*
X77140214Y-116030109D01*
X77304793Y-116149682D01*
X77347459Y-116205011D01*
X77353438Y-116274625D01*
X77320833Y-116336420D01*
X77304793Y-116350318D01*
X77140214Y-116469890D01*
X77140209Y-116469894D01*
X76989890Y-116620213D01*
X76864951Y-116792179D01*
X76768444Y-116981585D01*
X76702753Y-117183760D01*
X76670444Y-117387751D01*
X76669500Y-117393713D01*
X76669500Y-117606287D01*
X76676998Y-117653627D01*
X76690388Y-117738171D01*
X76702754Y-117816243D01*
X76751668Y-117966785D01*
X76768444Y-118018414D01*
X76864951Y-118207820D01*
X76989890Y-118379786D01*
X77140213Y-118530109D01*
X77312179Y-118655048D01*
X77312181Y-118655049D01*
X77312184Y-118655051D01*
X77501588Y-118751557D01*
X77703757Y-118817246D01*
X77913713Y-118850500D01*
X77913714Y-118850500D01*
X78626286Y-118850500D01*
X78626287Y-118850500D01*
X78836243Y-118817246D01*
X79038412Y-118751557D01*
X79227816Y-118655051D01*
X79249789Y-118639086D01*
X79399786Y-118530109D01*
X79399788Y-118530106D01*
X79399792Y-118530104D01*
X79550104Y-118379792D01*
X79550106Y-118379788D01*
X79550109Y-118379786D01*
X79675048Y-118207820D01*
X79675047Y-118207820D01*
X79675051Y-118207816D01*
X79771557Y-118018412D01*
X79837246Y-117816243D01*
X79870500Y-117606287D01*
X79870500Y-117393713D01*
X79837246Y-117183757D01*
X79771557Y-116981588D01*
X79675051Y-116792184D01*
X79675049Y-116792181D01*
X79675048Y-116792179D01*
X79550109Y-116620213D01*
X79399792Y-116469896D01*
X79367975Y-116446780D01*
X79235204Y-116350316D01*
X79192540Y-116294989D01*
X79186561Y-116225376D01*
X79219166Y-116163580D01*
X79235199Y-116149686D01*
X79399792Y-116030104D01*
X79550104Y-115879792D01*
X79550106Y-115879788D01*
X79550109Y-115879786D01*
X79675048Y-115707820D01*
X79675047Y-115707820D01*
X79675051Y-115707816D01*
X79771557Y-115518412D01*
X79837246Y-115316243D01*
X79844371Y-115271260D01*
X86112000Y-115271260D01*
X86112000Y-115518739D01*
X86112001Y-115518756D01*
X86144303Y-115764117D01*
X86208361Y-116003184D01*
X86303069Y-116231829D01*
X86303074Y-116231840D01*
X86426812Y-116446159D01*
X86426823Y-116446175D01*
X86577479Y-116642514D01*
X86577485Y-116642521D01*
X86752478Y-116817514D01*
X86752482Y-116817517D01*
X86752484Y-116817519D01*
X86807960Y-116860087D01*
X86842543Y-116886624D01*
X86883745Y-116943052D01*
X86887900Y-117012798D01*
X86853687Y-117073719D01*
X86842543Y-117083376D01*
X86752478Y-117152485D01*
X86577485Y-117327478D01*
X86577479Y-117327485D01*
X86426823Y-117523824D01*
X86426812Y-117523840D01*
X86303074Y-117738159D01*
X86303069Y-117738170D01*
X86208361Y-117966815D01*
X86144303Y-118205882D01*
X86112001Y-118451243D01*
X86112000Y-118451260D01*
X86112000Y-118698739D01*
X86112001Y-118698756D01*
X86144303Y-118944117D01*
X86208361Y-119183184D01*
X86303069Y-119411829D01*
X86303074Y-119411840D01*
X86426812Y-119626159D01*
X86426823Y-119626175D01*
X86577479Y-119822514D01*
X86577485Y-119822521D01*
X86752478Y-119997514D01*
X86752485Y-119997520D01*
X86892305Y-120104807D01*
X86948833Y-120148183D01*
X86948840Y-120148187D01*
X87163159Y-120271925D01*
X87163164Y-120271927D01*
X87163167Y-120271929D01*
X87391820Y-120366640D01*
X87630879Y-120430696D01*
X87876254Y-120463000D01*
X87876261Y-120463000D01*
X88123739Y-120463000D01*
X88123746Y-120463000D01*
X88369121Y-120430696D01*
X88608180Y-120366640D01*
X88836833Y-120271929D01*
X89051167Y-120148183D01*
X89219042Y-120019367D01*
X89284208Y-119994175D01*
X89352653Y-120008213D01*
X89402643Y-120057027D01*
X89409087Y-120070292D01*
X89478069Y-120236829D01*
X89478074Y-120236840D01*
X89601812Y-120451159D01*
X89601823Y-120451175D01*
X89752479Y-120647514D01*
X89752485Y-120647521D01*
X89927478Y-120822514D01*
X89927484Y-120822519D01*
X90123833Y-120973183D01*
X90123840Y-120973187D01*
X90338159Y-121096925D01*
X90338164Y-121096927D01*
X90338167Y-121096929D01*
X90566820Y-121191640D01*
X90805879Y-121255696D01*
X91051254Y-121288000D01*
X91051261Y-121288000D01*
X91298739Y-121288000D01*
X91298746Y-121288000D01*
X91544121Y-121255696D01*
X91783180Y-121191640D01*
X92011833Y-121096929D01*
X92226167Y-120973183D01*
X92422516Y-120822519D01*
X92597519Y-120647516D01*
X92748183Y-120451167D01*
X92871929Y-120236833D01*
X92966640Y-120008180D01*
X93030696Y-119769121D01*
X93063000Y-119523746D01*
X93063000Y-119276260D01*
X93987000Y-119276260D01*
X93987000Y-119523739D01*
X93987001Y-119523756D01*
X94019303Y-119769117D01*
X94083361Y-120008184D01*
X94178069Y-120236829D01*
X94178074Y-120236840D01*
X94301812Y-120451159D01*
X94301823Y-120451175D01*
X94452479Y-120647514D01*
X94452485Y-120647521D01*
X94627478Y-120822514D01*
X94627484Y-120822519D01*
X94823833Y-120973183D01*
X94823840Y-120973187D01*
X95038159Y-121096925D01*
X95038164Y-121096927D01*
X95038167Y-121096929D01*
X95266820Y-121191640D01*
X95505879Y-121255696D01*
X95751254Y-121288000D01*
X95751261Y-121288000D01*
X95998739Y-121288000D01*
X95998746Y-121288000D01*
X96244121Y-121255696D01*
X96483180Y-121191640D01*
X96711833Y-121096929D01*
X96926167Y-120973183D01*
X97122516Y-120822519D01*
X97297519Y-120647516D01*
X97448183Y-120451167D01*
X97571929Y-120236833D01*
X97666640Y-120008180D01*
X97730696Y-119769121D01*
X97763000Y-119523746D01*
X97763000Y-119276254D01*
X97730696Y-119030879D01*
X97666640Y-118791820D01*
X97571929Y-118563167D01*
X97571927Y-118563164D01*
X97571925Y-118563159D01*
X97448187Y-118348840D01*
X97448183Y-118348833D01*
X97338493Y-118205882D01*
X97297520Y-118152485D01*
X97297514Y-118152478D01*
X97122521Y-117977485D01*
X97122514Y-117977479D01*
X96926175Y-117826823D01*
X96926173Y-117826821D01*
X96926167Y-117826817D01*
X96926162Y-117826814D01*
X96926159Y-117826812D01*
X96711840Y-117703074D01*
X96711829Y-117703069D01*
X96483184Y-117608361D01*
X96244117Y-117544303D01*
X95998756Y-117512001D01*
X95998751Y-117512000D01*
X95998746Y-117512000D01*
X95751254Y-117512000D01*
X95751248Y-117512000D01*
X95751243Y-117512001D01*
X95505882Y-117544303D01*
X95266815Y-117608361D01*
X95038170Y-117703069D01*
X95038159Y-117703074D01*
X94823840Y-117826812D01*
X94823824Y-117826823D01*
X94627485Y-117977479D01*
X94627478Y-117977485D01*
X94452485Y-118152478D01*
X94452479Y-118152485D01*
X94301823Y-118348824D01*
X94301812Y-118348840D01*
X94178074Y-118563159D01*
X94178069Y-118563170D01*
X94083361Y-118791815D01*
X94019303Y-119030882D01*
X93987001Y-119276243D01*
X93987000Y-119276260D01*
X93063000Y-119276260D01*
X93063000Y-119276254D01*
X93030696Y-119030879D01*
X92966640Y-118791820D01*
X92871929Y-118563167D01*
X92871927Y-118563164D01*
X92871925Y-118563159D01*
X92748187Y-118348840D01*
X92748183Y-118348833D01*
X92638493Y-118205882D01*
X92597520Y-118152485D01*
X92597514Y-118152478D01*
X92422521Y-117977485D01*
X92422514Y-117977479D01*
X92226175Y-117826823D01*
X92226173Y-117826821D01*
X92226167Y-117826817D01*
X92226162Y-117826814D01*
X92226159Y-117826812D01*
X92011840Y-117703074D01*
X92011829Y-117703069D01*
X91783184Y-117608361D01*
X91544117Y-117544303D01*
X91298756Y-117512001D01*
X91298751Y-117512000D01*
X91298746Y-117512000D01*
X91051254Y-117512000D01*
X91051248Y-117512000D01*
X91051243Y-117512001D01*
X90805882Y-117544303D01*
X90566815Y-117608361D01*
X90338170Y-117703069D01*
X90338159Y-117703074D01*
X90123840Y-117826812D01*
X90123824Y-117826823D01*
X89955959Y-117955630D01*
X89890790Y-117980824D01*
X89822345Y-117966785D01*
X89772355Y-117917971D01*
X89765912Y-117904707D01*
X89729267Y-117816239D01*
X89696929Y-117738167D01*
X89696927Y-117738164D01*
X89696925Y-117738159D01*
X89573187Y-117523840D01*
X89573183Y-117523833D01*
X89468774Y-117387765D01*
X89422520Y-117327485D01*
X89422514Y-117327478D01*
X89247521Y-117152485D01*
X89247514Y-117152479D01*
X89157457Y-117083376D01*
X89116254Y-117026948D01*
X89112099Y-116957202D01*
X89146311Y-116896282D01*
X89157457Y-116886624D01*
X89185902Y-116864796D01*
X89247516Y-116817519D01*
X89422519Y-116642516D01*
X89537909Y-116492136D01*
X89594334Y-116450935D01*
X89664080Y-116446780D01*
X89679616Y-116451442D01*
X89679935Y-116451560D01*
X89680017Y-116451591D01*
X89739627Y-116458000D01*
X92610372Y-116457999D01*
X92669983Y-116451591D01*
X92804831Y-116401296D01*
X92920046Y-116315046D01*
X93006296Y-116199831D01*
X93056591Y-116064983D01*
X93063000Y-116005373D01*
X93062999Y-114446260D01*
X93987000Y-114446260D01*
X93987000Y-114693739D01*
X93987001Y-114693756D01*
X94019303Y-114939117D01*
X94083361Y-115178184D01*
X94178069Y-115406829D01*
X94178074Y-115406840D01*
X94301812Y-115621159D01*
X94301823Y-115621175D01*
X94452479Y-115817514D01*
X94452485Y-115817521D01*
X94627478Y-115992514D01*
X94627485Y-115992520D01*
X94767305Y-116099807D01*
X94823833Y-116143183D01*
X94823840Y-116143187D01*
X95038159Y-116266925D01*
X95038164Y-116266927D01*
X95038167Y-116266929D01*
X95266820Y-116361640D01*
X95505879Y-116425696D01*
X95751254Y-116458000D01*
X95751261Y-116458000D01*
X95998739Y-116458000D01*
X95998746Y-116458000D01*
X96244121Y-116425696D01*
X96483180Y-116361640D01*
X96711833Y-116266929D01*
X96926167Y-116143183D01*
X97122516Y-115992519D01*
X97297519Y-115817516D01*
X97448183Y-115621167D01*
X97571929Y-115406833D01*
X97666640Y-115178180D01*
X97730696Y-114939121D01*
X97763000Y-114693746D01*
X97763000Y-114446254D01*
X97730696Y-114200879D01*
X97666640Y-113961820D01*
X97571929Y-113733167D01*
X97571927Y-113733164D01*
X97571925Y-113733159D01*
X97448187Y-113518840D01*
X97448183Y-113518833D01*
X97341493Y-113379792D01*
X97297520Y-113322485D01*
X97297514Y-113322478D01*
X97122521Y-113147485D01*
X97122514Y-113147479D01*
X96926175Y-112996823D01*
X96926173Y-112996821D01*
X96926167Y-112996817D01*
X96926162Y-112996814D01*
X96926159Y-112996812D01*
X96711840Y-112873074D01*
X96711829Y-112873069D01*
X96483184Y-112778361D01*
X96244117Y-112714303D01*
X95998756Y-112682001D01*
X95998751Y-112682000D01*
X95998746Y-112682000D01*
X95751254Y-112682000D01*
X95751248Y-112682000D01*
X95751243Y-112682001D01*
X95505882Y-112714303D01*
X95266815Y-112778361D01*
X95038170Y-112873069D01*
X95038159Y-112873074D01*
X94823840Y-112996812D01*
X94823824Y-112996823D01*
X94627485Y-113147479D01*
X94627478Y-113147485D01*
X94452485Y-113322478D01*
X94452479Y-113322485D01*
X94301823Y-113518824D01*
X94301812Y-113518840D01*
X94178074Y-113733159D01*
X94178069Y-113733170D01*
X94083361Y-113961815D01*
X94019303Y-114200882D01*
X93987001Y-114446243D01*
X93987000Y-114446260D01*
X93062999Y-114446260D01*
X93062999Y-113134628D01*
X93056591Y-113075017D01*
X93035479Y-113018414D01*
X93006297Y-112940171D01*
X93006293Y-112940164D01*
X92920047Y-112824955D01*
X92920044Y-112824952D01*
X92804835Y-112738706D01*
X92804828Y-112738702D01*
X92669982Y-112688408D01*
X92669983Y-112688408D01*
X92610383Y-112682001D01*
X92610381Y-112682000D01*
X92610373Y-112682000D01*
X92610364Y-112682000D01*
X89739629Y-112682000D01*
X89739623Y-112682001D01*
X89680016Y-112688408D01*
X89545171Y-112738702D01*
X89545164Y-112738706D01*
X89429955Y-112824952D01*
X89429952Y-112824955D01*
X89343706Y-112940164D01*
X89343702Y-112940171D01*
X89293408Y-113075017D01*
X89287001Y-113134616D01*
X89287001Y-113134623D01*
X89287000Y-113134635D01*
X89287000Y-113751330D01*
X89267315Y-113818369D01*
X89214511Y-113864124D01*
X89145353Y-113874068D01*
X89087515Y-113849707D01*
X89051174Y-113821822D01*
X89051170Y-113821819D01*
X89051167Y-113821817D01*
X89051163Y-113821814D01*
X89051159Y-113821812D01*
X88836840Y-113698074D01*
X88836829Y-113698069D01*
X88608184Y-113603361D01*
X88369117Y-113539303D01*
X88123756Y-113507001D01*
X88123751Y-113507000D01*
X88123746Y-113507000D01*
X87876254Y-113507000D01*
X87876248Y-113507000D01*
X87876243Y-113507001D01*
X87630882Y-113539303D01*
X87391815Y-113603361D01*
X87163170Y-113698069D01*
X87163159Y-113698074D01*
X86948840Y-113821812D01*
X86948824Y-113821823D01*
X86752485Y-113972479D01*
X86752478Y-113972485D01*
X86577485Y-114147478D01*
X86577479Y-114147485D01*
X86426823Y-114343824D01*
X86426812Y-114343840D01*
X86303074Y-114558159D01*
X86303069Y-114558170D01*
X86208361Y-114786815D01*
X86144303Y-115025882D01*
X86112001Y-115271243D01*
X86112000Y-115271260D01*
X79844371Y-115271260D01*
X79870500Y-115106287D01*
X79870500Y-114893713D01*
X79837246Y-114683757D01*
X79771557Y-114481588D01*
X79675051Y-114292184D01*
X79675049Y-114292181D01*
X79675048Y-114292179D01*
X79550109Y-114120213D01*
X79399792Y-113969896D01*
X79373274Y-113950630D01*
X79235204Y-113850316D01*
X79192540Y-113794989D01*
X79186561Y-113725376D01*
X79219166Y-113663580D01*
X79235199Y-113649686D01*
X79399792Y-113530104D01*
X79550104Y-113379792D01*
X79550106Y-113379788D01*
X79550109Y-113379786D01*
X79675048Y-113207820D01*
X79675047Y-113207820D01*
X79675051Y-113207816D01*
X79771557Y-113018412D01*
X79837246Y-112816243D01*
X79870500Y-112606287D01*
X79870500Y-112393713D01*
X79844632Y-112230390D01*
X79853587Y-112161098D01*
X79898583Y-112107646D01*
X79919653Y-112096432D01*
X80036540Y-112048016D01*
X80036540Y-112048015D01*
X80036547Y-112048013D01*
X80184035Y-111949464D01*
X80309464Y-111824035D01*
X80408013Y-111676547D01*
X80475894Y-111512666D01*
X80510500Y-111338691D01*
X80510500Y-111161309D01*
X80510500Y-111161306D01*
X80510499Y-111161304D01*
X80475896Y-110987341D01*
X80475893Y-110987332D01*
X80408016Y-110823459D01*
X80408009Y-110823446D01*
X80309464Y-110675965D01*
X80309461Y-110675961D01*
X80184038Y-110550538D01*
X80184034Y-110550535D01*
X80036553Y-110451990D01*
X80036540Y-110451983D01*
X79919653Y-110403568D01*
X79865249Y-110359727D01*
X79843184Y-110293433D01*
X79844632Y-110269609D01*
X79850511Y-110232493D01*
X79870500Y-110106287D01*
X79870500Y-109893713D01*
X79837246Y-109683757D01*
X79771557Y-109481588D01*
X79675051Y-109292184D01*
X79675049Y-109292181D01*
X79675048Y-109292179D01*
X79550109Y-109120213D01*
X79399792Y-108969896D01*
X79235204Y-108850316D01*
X79192540Y-108794989D01*
X79186561Y-108725376D01*
X79219166Y-108663580D01*
X79235199Y-108649686D01*
X79399792Y-108530104D01*
X79550104Y-108379792D01*
X79550106Y-108379788D01*
X79550109Y-108379786D01*
X79675048Y-108207820D01*
X79675047Y-108207820D01*
X79675051Y-108207816D01*
X79771557Y-108018412D01*
X79837246Y-107816243D01*
X79870500Y-107606287D01*
X79870500Y-107393713D01*
X79837246Y-107183757D01*
X79771557Y-106981588D01*
X79675051Y-106792184D01*
X79675049Y-106792181D01*
X79675048Y-106792179D01*
X79550109Y-106620213D01*
X79399786Y-106469890D01*
X79227820Y-106344951D01*
X79038414Y-106248444D01*
X79038413Y-106248443D01*
X79038412Y-106248443D01*
X78836243Y-106182754D01*
X78836241Y-106182753D01*
X78836240Y-106182753D01*
X78674957Y-106157208D01*
X78626287Y-106149500D01*
X77913713Y-106149500D01*
X77874202Y-106155757D01*
X77703759Y-106182753D01*
X77703755Y-106182754D01*
X77631817Y-106206128D01*
X77561976Y-106208123D01*
X77502143Y-106172042D01*
X77471316Y-106109341D01*
X77469500Y-106088197D01*
X77469500Y-105763315D01*
X83399500Y-105763315D01*
X83399500Y-106336669D01*
X83399501Y-106336687D01*
X83409825Y-106437752D01*
X83412361Y-106445404D01*
X83464092Y-106601516D01*
X83549999Y-106740794D01*
X83554661Y-106748351D01*
X83556129Y-106749819D01*
X83556814Y-106751075D01*
X83559138Y-106754013D01*
X83558635Y-106754410D01*
X83589614Y-106811142D01*
X83584630Y-106880834D01*
X83558930Y-106920822D01*
X83559138Y-106920987D01*
X83557463Y-106923105D01*
X83556129Y-106925181D01*
X83554661Y-106926648D01*
X83464093Y-107073481D01*
X83464092Y-107073484D01*
X83409826Y-107237247D01*
X83409826Y-107237248D01*
X83409825Y-107237248D01*
X83399500Y-107338315D01*
X83399500Y-107911669D01*
X83399501Y-107911687D01*
X83409825Y-108012752D01*
X83429436Y-108071932D01*
X83464092Y-108176516D01*
X83554660Y-108323350D01*
X83676650Y-108445340D01*
X83823484Y-108535908D01*
X83987247Y-108590174D01*
X84088323Y-108600500D01*
X84686676Y-108600499D01*
X84686684Y-108600498D01*
X84686687Y-108600498D01*
X84742030Y-108594844D01*
X84787753Y-108590174D01*
X84951516Y-108535908D01*
X85098350Y-108445340D01*
X85220340Y-108323350D01*
X85310908Y-108176516D01*
X85365174Y-108012753D01*
X85375500Y-107911677D01*
X85375499Y-107338324D01*
X85365174Y-107237247D01*
X85310908Y-107073484D01*
X85310903Y-107073477D01*
X85307854Y-107066936D01*
X85309637Y-107066104D01*
X85293811Y-107008282D01*
X85314727Y-106941617D01*
X85368365Y-106896842D01*
X85437695Y-106888174D01*
X85482885Y-106905026D01*
X85573484Y-106960908D01*
X85734160Y-107014151D01*
X85743675Y-107017304D01*
X85743630Y-107017437D01*
X85747801Y-107018735D01*
X85747921Y-107018367D01*
X85752553Y-107019872D01*
X85752555Y-107019873D01*
X85917299Y-107073402D01*
X86088389Y-107100500D01*
X86088390Y-107100500D01*
X86261610Y-107100500D01*
X86261611Y-107100500D01*
X86432701Y-107073402D01*
X86566278Y-107030000D01*
X86602081Y-107018367D01*
X86602202Y-107018742D01*
X86606370Y-107017443D01*
X86606324Y-107017304D01*
X86612751Y-107015174D01*
X86612753Y-107015174D01*
X86776516Y-106960908D01*
X86923350Y-106870340D01*
X87045340Y-106748350D01*
X87135908Y-106601516D01*
X87135909Y-106601512D01*
X87138091Y-106597975D01*
X87155945Y-106575395D01*
X90768462Y-102962878D01*
X90824047Y-102930787D01*
X90887781Y-102913710D01*
X91093726Y-102828405D01*
X91286774Y-102716948D01*
X91463624Y-102581247D01*
X91621247Y-102423624D01*
X91756948Y-102246774D01*
X91868405Y-102053726D01*
X91953710Y-101847781D01*
X92011404Y-101632463D01*
X92040500Y-101411457D01*
X92040500Y-101188543D01*
X92011404Y-100967537D01*
X91953710Y-100752219D01*
X91868405Y-100546274D01*
X91756948Y-100353226D01*
X91621247Y-100176376D01*
X91621242Y-100176370D01*
X91463629Y-100018757D01*
X91463622Y-100018751D01*
X91286782Y-99883058D01*
X91286780Y-99883057D01*
X91286774Y-99883052D01*
X91093726Y-99771595D01*
X91093722Y-99771593D01*
X90956034Y-99714561D01*
X90901631Y-99670720D01*
X90879566Y-99604426D01*
X90896845Y-99536727D01*
X90947982Y-99489116D01*
X90956034Y-99485439D01*
X90993768Y-99469808D01*
X91093726Y-99428405D01*
X91286774Y-99316948D01*
X91463624Y-99181247D01*
X91621247Y-99023624D01*
X91756948Y-98846774D01*
X91868405Y-98653726D01*
X91953710Y-98447781D01*
X92011404Y-98232463D01*
X92040500Y-98011457D01*
X92040500Y-97788543D01*
X92011404Y-97567537D01*
X91953710Y-97352219D01*
X91868405Y-97146274D01*
X91756948Y-96953226D01*
X91621247Y-96776376D01*
X91621242Y-96776370D01*
X91463629Y-96618757D01*
X91463622Y-96618751D01*
X91286782Y-96483058D01*
X91286780Y-96483057D01*
X91286774Y-96483052D01*
X91093726Y-96371595D01*
X91093722Y-96371593D01*
X90887790Y-96286293D01*
X90887783Y-96286291D01*
X90887781Y-96286290D01*
X90672463Y-96228596D01*
X90672457Y-96228595D01*
X90672452Y-96228594D01*
X90451466Y-96199501D01*
X90451463Y-96199500D01*
X90451457Y-96199500D01*
X90228543Y-96199500D01*
X90228537Y-96199500D01*
X90228533Y-96199501D01*
X90007547Y-96228594D01*
X90007540Y-96228595D01*
X90007537Y-96228596D01*
X89792219Y-96286290D01*
X89792209Y-96286293D01*
X89586277Y-96371593D01*
X89586273Y-96371595D01*
X89393226Y-96483052D01*
X89393217Y-96483058D01*
X89216377Y-96618751D01*
X89216370Y-96618757D01*
X89058757Y-96776370D01*
X89058751Y-96776377D01*
X88923058Y-96953217D01*
X88923052Y-96953226D01*
X88811595Y-97146273D01*
X88811593Y-97146277D01*
X88726293Y-97352209D01*
X88726290Y-97352219D01*
X88668597Y-97567534D01*
X88668594Y-97567547D01*
X88639501Y-97788533D01*
X88639500Y-97788549D01*
X88639500Y-98011450D01*
X88639501Y-98011466D01*
X88668594Y-98232452D01*
X88668595Y-98232457D01*
X88668596Y-98232463D01*
X88703484Y-98362666D01*
X88726290Y-98447780D01*
X88726293Y-98447790D01*
X88758918Y-98526553D01*
X88811595Y-98653726D01*
X88923052Y-98846774D01*
X88923057Y-98846780D01*
X88923058Y-98846782D01*
X89058751Y-99023622D01*
X89058757Y-99023629D01*
X89216370Y-99181242D01*
X89216376Y-99181247D01*
X89393226Y-99316948D01*
X89586274Y-99428405D01*
X89623199Y-99443699D01*
X89723965Y-99485439D01*
X89778368Y-99529280D01*
X89800433Y-99595574D01*
X89783154Y-99663274D01*
X89732016Y-99710884D01*
X89723965Y-99714561D01*
X89586277Y-99771593D01*
X89586273Y-99771595D01*
X89393226Y-99883052D01*
X89393217Y-99883058D01*
X89216377Y-100018751D01*
X89216370Y-100018757D01*
X89058757Y-100176370D01*
X89058751Y-100176377D01*
X88923058Y-100353217D01*
X88923052Y-100353226D01*
X88811595Y-100546273D01*
X88811593Y-100546277D01*
X88726293Y-100752209D01*
X88726290Y-100752219D01*
X88668597Y-100967534D01*
X88668594Y-100967547D01*
X88639501Y-101188533D01*
X88639500Y-101188549D01*
X88639500Y-101411450D01*
X88639501Y-101411466D01*
X88668594Y-101632452D01*
X88668595Y-101632457D01*
X88668596Y-101632463D01*
X88668597Y-101632465D01*
X88717183Y-101813793D01*
X88715520Y-101883643D01*
X88685089Y-101933567D01*
X85368854Y-105249802D01*
X85307531Y-105283287D01*
X85237839Y-105278303D01*
X85193492Y-105249802D01*
X85173351Y-105229661D01*
X85173350Y-105229660D01*
X85026516Y-105139092D01*
X84862753Y-105084826D01*
X84862751Y-105084825D01*
X84761678Y-105074500D01*
X84088330Y-105074500D01*
X84088312Y-105074501D01*
X83987247Y-105084825D01*
X83823484Y-105139092D01*
X83823481Y-105139093D01*
X83676648Y-105229661D01*
X83554661Y-105351648D01*
X83464093Y-105498481D01*
X83464092Y-105498484D01*
X83409826Y-105662247D01*
X83409826Y-105662248D01*
X83409825Y-105662248D01*
X83399500Y-105763315D01*
X77469500Y-105763315D01*
X77469500Y-101022518D01*
X77489185Y-100955479D01*
X77505815Y-100934841D01*
X77703837Y-100736818D01*
X77765160Y-100703334D01*
X77791518Y-100700500D01*
X78456286Y-100700500D01*
X78456287Y-100700500D01*
X78666243Y-100667246D01*
X78868412Y-100601557D01*
X79057816Y-100505051D01*
X79096877Y-100476672D01*
X79229786Y-100380109D01*
X79229788Y-100380106D01*
X79229792Y-100380104D01*
X79380104Y-100229792D01*
X79380106Y-100229788D01*
X79380109Y-100229786D01*
X79505048Y-100057820D01*
X79505047Y-100057820D01*
X79505051Y-100057816D01*
X79601557Y-99868412D01*
X79667246Y-99666243D01*
X79700500Y-99456287D01*
X79700500Y-99243713D01*
X79674632Y-99080390D01*
X79683587Y-99011098D01*
X79728583Y-98957646D01*
X79749653Y-98946432D01*
X79866540Y-98898016D01*
X79866540Y-98898015D01*
X79866547Y-98898013D01*
X80014035Y-98799464D01*
X80139464Y-98674035D01*
X80238013Y-98526547D01*
X80305894Y-98362666D01*
X80315403Y-98314865D01*
X80340499Y-98188695D01*
X80340500Y-98188693D01*
X80340500Y-98011306D01*
X80340499Y-98011304D01*
X80305896Y-97837341D01*
X80305893Y-97837332D01*
X80299404Y-97821667D01*
X80284678Y-97786114D01*
X80238016Y-97673459D01*
X80238009Y-97673446D01*
X80139464Y-97525965D01*
X80139461Y-97525961D01*
X80014038Y-97400538D01*
X80014034Y-97400535D01*
X79866553Y-97301990D01*
X79866540Y-97301983D01*
X79777736Y-97265200D01*
X79723332Y-97221359D01*
X79701267Y-97155065D01*
X79701785Y-97138485D01*
X79710500Y-97049996D01*
X79710500Y-96250002D01*
X79700787Y-96151383D01*
X79700787Y-96151380D01*
X79681376Y-96053796D01*
X79667994Y-96001366D01*
X79605897Y-95871576D01*
X79550620Y-95788848D01*
X79518191Y-95745527D01*
X79411152Y-95649380D01*
X79328424Y-95594103D01*
X79328423Y-95594102D01*
X79281887Y-95566491D01*
X79281886Y-95566490D01*
X79146210Y-95518625D01*
X79146204Y-95518624D01*
X79098065Y-95509048D01*
X79048616Y-95499212D01*
X78974188Y-95491882D01*
X78950000Y-95489500D01*
X77250000Y-95489500D01*
X77228453Y-95491622D01*
X77151383Y-95499212D01*
X77053793Y-95518624D01*
X77053771Y-95518629D01*
X77001371Y-95532004D01*
X77001367Y-95532005D01*
X76871572Y-95594105D01*
X76788854Y-95649375D01*
X76788840Y-95649385D01*
X76745527Y-95681809D01*
X76649377Y-95788851D01*
X76649377Y-95788852D01*
X76594102Y-95871576D01*
X76566491Y-95918112D01*
X76566490Y-95918113D01*
X76518625Y-96053789D01*
X76518624Y-96053796D01*
X76499212Y-96151383D01*
X76489500Y-96250002D01*
X76489500Y-97449997D01*
X76499212Y-97548616D01*
X76518624Y-97646206D01*
X76518629Y-97646228D01*
X76525580Y-97673459D01*
X76532006Y-97698634D01*
X76594103Y-97828424D01*
X76649380Y-97911152D01*
X76681809Y-97954473D01*
X76788848Y-98050620D01*
X76871576Y-98105897D01*
X76918108Y-98133506D01*
X76920371Y-98134564D01*
X76921355Y-98135432D01*
X76923350Y-98136616D01*
X76923125Y-98136994D01*
X76972762Y-98180791D01*
X76991844Y-98248005D01*
X76971559Y-98314865D01*
X76955531Y-98334573D01*
X76819889Y-98470215D01*
X76694951Y-98642179D01*
X76598444Y-98831585D01*
X76532753Y-99033760D01*
X76499500Y-99243713D01*
X76499500Y-99456286D01*
X76532754Y-99666246D01*
X76573118Y-99790475D01*
X76575113Y-99860316D01*
X76542868Y-99916473D01*
X76224887Y-100234454D01*
X76148222Y-100349192D01*
X76095421Y-100476667D01*
X76095418Y-100476679D01*
X76068972Y-100609633D01*
X76068969Y-100609648D01*
X76068500Y-100612001D01*
X76068500Y-100612007D01*
X76068500Y-110930006D01*
X76068500Y-111067994D01*
X76068500Y-111067996D01*
X76068499Y-111067996D01*
X74425500Y-111067996D01*
X74425500Y-86253246D01*
X74425670Y-86246757D01*
X74430120Y-86161844D01*
X74431856Y-86128711D01*
X75574500Y-86128711D01*
X75574500Y-86371288D01*
X75606161Y-86611785D01*
X75668947Y-86846104D01*
X75750874Y-87043893D01*
X75761776Y-87070212D01*
X75883064Y-87280289D01*
X75883066Y-87280292D01*
X75883067Y-87280293D01*
X76030733Y-87472736D01*
X76030739Y-87472743D01*
X76202256Y-87644260D01*
X76202263Y-87644266D01*
X76315321Y-87731018D01*
X76394711Y-87791936D01*
X76604788Y-87913224D01*
X76828900Y-88006054D01*
X77063211Y-88068838D01*
X77243586Y-88092584D01*
X77303711Y-88100500D01*
X77303712Y-88100500D01*
X77546289Y-88100500D01*
X77594388Y-88094167D01*
X77786789Y-88068838D01*
X78021100Y-88006054D01*
X78245212Y-87913224D01*
X78455289Y-87791936D01*
X78647738Y-87644265D01*
X78819265Y-87472738D01*
X78966936Y-87280289D01*
X79088224Y-87070212D01*
X79181054Y-86846100D01*
X79243838Y-86611789D01*
X79275500Y-86371288D01*
X79275500Y-86128712D01*
X79243838Y-85888211D01*
X79181054Y-85653900D01*
X79088224Y-85429788D01*
X78966936Y-85219711D01*
X78819265Y-85027262D01*
X78819260Y-85027256D01*
X78647743Y-84855739D01*
X78647736Y-84855733D01*
X78455293Y-84708067D01*
X78455292Y-84708066D01*
X78455289Y-84708064D01*
X78245212Y-84586776D01*
X78245205Y-84586773D01*
X78021104Y-84493947D01*
X77786785Y-84431161D01*
X77546289Y-84399500D01*
X77546288Y-84399500D01*
X77303712Y-84399500D01*
X77303711Y-84399500D01*
X77063214Y-84431161D01*
X76828895Y-84493947D01*
X76604794Y-84586773D01*
X76604785Y-84586777D01*
X76394706Y-84708067D01*
X76202263Y-84855733D01*
X76202256Y-84855739D01*
X76030739Y-85027256D01*
X76030733Y-85027263D01*
X75883067Y-85219706D01*
X75761777Y-85429785D01*
X75761773Y-85429794D01*
X75668947Y-85653895D01*
X75606161Y-85888214D01*
X75574500Y-86128711D01*
X74431856Y-86128711D01*
X74441592Y-85942951D01*
X74442949Y-85930046D01*
X74479904Y-85696715D01*
X74490029Y-85632786D01*
X74492723Y-85620107D01*
X74570627Y-85329368D01*
X74574636Y-85317033D01*
X74682493Y-85036054D01*
X74687763Y-85024215D01*
X74824415Y-84756023D01*
X74830891Y-84744808D01*
X74994819Y-84492380D01*
X75002434Y-84481899D01*
X75191858Y-84247979D01*
X75200525Y-84238354D01*
X75413354Y-84025525D01*
X75422979Y-84016858D01*
X75656899Y-83827434D01*
X75667380Y-83819819D01*
X75919808Y-83655891D01*
X75931023Y-83649415D01*
X76199215Y-83512763D01*
X76211054Y-83507493D01*
X76492040Y-83399633D01*
X76504368Y-83395627D01*
X76795107Y-83317723D01*
X76807786Y-83315029D01*
X77105046Y-83267949D01*
X77117951Y-83266592D01*
X77421756Y-83250669D01*
X77428246Y-83250500D01*
X77490892Y-83250500D01*
X95765511Y-83250500D01*
X95832550Y-83270185D01*
G37*
%TD.AperFunction*%
%TA.AperFunction,Conductor*%
G36*
X117338038Y-92124685D02*
G01*
X117383793Y-92177489D01*
X117394999Y-92229000D01*
X117394999Y-94970999D01*
X117375314Y-95038038D01*
X117322510Y-95083793D01*
X117270999Y-95094999D01*
X114529000Y-95094999D01*
X114461961Y-95075314D01*
X114416206Y-95022510D01*
X114405000Y-94970999D01*
X114405000Y-92229000D01*
X114424685Y-92161961D01*
X114477489Y-92116206D01*
X114529000Y-92105000D01*
X117270999Y-92105000D01*
X117338038Y-92124685D01*
G37*
%TD.AperFunction*%
%TA.AperFunction,Conductor*%
G36*
X103388038Y-86274685D02*
G01*
X103433793Y-86327489D01*
X103444999Y-86379000D01*
X103444999Y-89120999D01*
X103425314Y-89188038D01*
X103372510Y-89233793D01*
X103320999Y-89244999D01*
X100579000Y-89244999D01*
X100511961Y-89225314D01*
X100466206Y-89172510D01*
X100455000Y-89120999D01*
X100455000Y-86379000D01*
X100474685Y-86311961D01*
X100527489Y-86266206D01*
X100579000Y-86255000D01*
X103320999Y-86255000D01*
X103388038Y-86274685D01*
G37*
%TD.AperFunction*%
%TD*%
%TA.AperFunction,Conductor*%
%TO.N,PS+*%
G36*
X116228244Y-83250670D02*
G01*
X116532046Y-83266592D01*
X116544953Y-83267949D01*
X116676089Y-83288718D01*
X116842209Y-83315028D01*
X116854896Y-83317724D01*
X117145625Y-83395625D01*
X117157965Y-83399635D01*
X117438938Y-83507490D01*
X117450790Y-83512767D01*
X117718968Y-83649411D01*
X117730199Y-83655896D01*
X117982608Y-83819812D01*
X117993109Y-83827441D01*
X118227010Y-84016850D01*
X118236655Y-84025535D01*
X118449464Y-84238344D01*
X118458149Y-84247989D01*
X118647558Y-84481890D01*
X118655187Y-84492391D01*
X118819101Y-84744796D01*
X118825591Y-84756036D01*
X118962231Y-85024206D01*
X118967510Y-85036064D01*
X119075363Y-85317033D01*
X119079374Y-85329376D01*
X119157273Y-85620097D01*
X119159971Y-85632794D01*
X119207050Y-85930046D01*
X119208407Y-85942953D01*
X119224330Y-86246756D01*
X119224500Y-86253246D01*
X119224500Y-109766222D01*
X119204815Y-109833261D01*
X119152011Y-109879016D01*
X119100500Y-109890222D01*
X118118038Y-109890222D01*
X118050999Y-109870537D01*
X118005244Y-109817733D01*
X117994354Y-109757375D01*
X117994984Y-109748575D01*
X118000500Y-109671448D01*
X118000500Y-106528552D01*
X117985196Y-106314572D01*
X117924369Y-106034954D01*
X117824367Y-105766839D01*
X117767630Y-105662934D01*
X117687229Y-105515690D01*
X117687224Y-105515682D01*
X117515745Y-105286612D01*
X117515729Y-105286594D01*
X117313405Y-105084270D01*
X117313387Y-105084254D01*
X117084317Y-104912775D01*
X117084309Y-104912770D01*
X116833166Y-104775635D01*
X116833167Y-104775635D01*
X116725915Y-104735632D01*
X116565046Y-104675631D01*
X116565043Y-104675630D01*
X116565037Y-104675628D01*
X116285433Y-104614804D01*
X116071450Y-104599500D01*
X116071448Y-104599500D01*
X112928552Y-104599500D01*
X112928549Y-104599500D01*
X112714566Y-104614804D01*
X112434962Y-104675628D01*
X112166833Y-104775635D01*
X111915690Y-104912770D01*
X111915682Y-104912775D01*
X111686612Y-105084254D01*
X111686594Y-105084270D01*
X111484270Y-105286594D01*
X111484254Y-105286612D01*
X111312775Y-105515682D01*
X111312770Y-105515690D01*
X111175635Y-105766833D01*
X111075628Y-106034962D01*
X111014804Y-106314566D01*
X111008026Y-106409346D01*
X110983609Y-106474810D01*
X110927676Y-106516682D01*
X110884342Y-106524500D01*
X108050889Y-106524500D01*
X108025325Y-106528549D01*
X107879802Y-106551597D01*
X107715052Y-106605128D01*
X107560709Y-106683769D01*
X107540555Y-106698412D01*
X107474748Y-106721890D01*
X107406695Y-106706063D01*
X107358001Y-106655956D01*
X107344127Y-106587478D01*
X107349963Y-106559100D01*
X107390174Y-106437753D01*
X107400500Y-106336677D01*
X107400499Y-105763324D01*
X107390174Y-105662247D01*
X107335908Y-105498484D01*
X107245340Y-105351650D01*
X107123350Y-105229660D01*
X106976516Y-105139092D01*
X106812753Y-105084826D01*
X106812751Y-105084825D01*
X106711678Y-105074500D01*
X106038330Y-105074500D01*
X106038309Y-105074502D01*
X105937931Y-105084755D01*
X105869238Y-105071985D01*
X105818355Y-105024103D01*
X105801435Y-104956313D01*
X105823852Y-104890137D01*
X105837642Y-104873724D01*
X107874548Y-102836817D01*
X107935871Y-102803333D01*
X107962229Y-102800499D01*
X108223338Y-102800499D01*
X108223344Y-102800499D01*
X108223352Y-102800498D01*
X108223355Y-102800498D01*
X108277760Y-102794940D01*
X108322708Y-102790349D01*
X108483697Y-102737003D01*
X108628044Y-102647968D01*
X108747968Y-102528044D01*
X108837003Y-102383697D01*
X108890349Y-102222708D01*
X108900500Y-102123345D01*
X108900499Y-101276656D01*
X108890349Y-101177292D01*
X108837003Y-101016303D01*
X108836999Y-101016297D01*
X108836998Y-101016294D01*
X108747970Y-100871959D01*
X108747967Y-100871955D01*
X108736819Y-100860807D01*
X108703334Y-100799484D01*
X108700500Y-100773126D01*
X108700500Y-100126874D01*
X108720185Y-100059835D01*
X108736819Y-100039193D01*
X108747968Y-100028044D01*
X108837003Y-99883697D01*
X108890349Y-99722708D01*
X108900500Y-99623345D01*
X108900499Y-98776656D01*
X108890349Y-98677292D01*
X108837003Y-98516303D01*
X108836999Y-98516297D01*
X108836998Y-98516294D01*
X108747970Y-98371959D01*
X108747967Y-98371955D01*
X108628044Y-98252032D01*
X108628040Y-98252029D01*
X108483705Y-98163001D01*
X108483699Y-98162998D01*
X108483697Y-98162997D01*
X108483694Y-98162996D01*
X108322709Y-98109651D01*
X108223346Y-98099500D01*
X107676662Y-98099500D01*
X107676644Y-98099501D01*
X107577292Y-98109650D01*
X107577289Y-98109651D01*
X107416305Y-98162996D01*
X107416294Y-98163001D01*
X107271959Y-98252029D01*
X107271955Y-98252032D01*
X107152032Y-98371955D01*
X107152029Y-98371959D01*
X107063001Y-98516294D01*
X107062996Y-98516305D01*
X107009651Y-98677290D01*
X106999500Y-98776647D01*
X106999500Y-99623337D01*
X106999501Y-99623355D01*
X107009650Y-99722707D01*
X107009651Y-99722710D01*
X107062996Y-99883694D01*
X107063001Y-99883705D01*
X107152029Y-100028040D01*
X107152032Y-100028044D01*
X107163181Y-100039193D01*
X107196666Y-100100516D01*
X107199500Y-100126874D01*
X107199500Y-100773126D01*
X107179815Y-100840165D01*
X107163181Y-100860807D01*
X107152032Y-100871955D01*
X107152029Y-100871959D01*
X107063001Y-101016294D01*
X107062996Y-101016305D01*
X107009651Y-101177290D01*
X106999500Y-101276647D01*
X106999500Y-101537770D01*
X106979815Y-101604809D01*
X106963181Y-101625451D01*
X104251451Y-104337181D01*
X104190128Y-104370666D01*
X104163770Y-104373500D01*
X96418466Y-104373500D01*
X96351427Y-104353815D01*
X96305672Y-104301011D01*
X96294467Y-104248903D01*
X96325587Y-97788549D01*
X98559500Y-97788549D01*
X98559500Y-98011450D01*
X98559501Y-98011466D01*
X98588594Y-98232452D01*
X98588595Y-98232457D01*
X98588596Y-98232463D01*
X98625973Y-98371955D01*
X98646290Y-98447780D01*
X98646293Y-98447790D01*
X98674673Y-98516305D01*
X98731595Y-98653726D01*
X98843052Y-98846774D01*
X98843057Y-98846780D01*
X98843058Y-98846782D01*
X98978751Y-99023622D01*
X98978757Y-99023629D01*
X99136370Y-99181242D01*
X99136376Y-99181247D01*
X99313226Y-99316948D01*
X99506274Y-99428405D01*
X99543199Y-99443699D01*
X99643965Y-99485439D01*
X99698368Y-99529280D01*
X99720433Y-99595574D01*
X99703154Y-99663274D01*
X99652016Y-99710884D01*
X99643965Y-99714561D01*
X99506277Y-99771593D01*
X99506273Y-99771595D01*
X99313226Y-99883052D01*
X99313217Y-99883058D01*
X99136377Y-100018751D01*
X99136370Y-100018757D01*
X98978757Y-100176370D01*
X98978751Y-100176377D01*
X98843058Y-100353217D01*
X98843052Y-100353226D01*
X98731595Y-100546273D01*
X98731593Y-100546277D01*
X98646293Y-100752209D01*
X98646290Y-100752219D01*
X98588597Y-100967534D01*
X98588594Y-100967547D01*
X98559501Y-101188533D01*
X98559500Y-101188549D01*
X98559500Y-101411450D01*
X98559501Y-101411466D01*
X98588594Y-101632452D01*
X98588595Y-101632457D01*
X98588596Y-101632463D01*
X98629900Y-101786611D01*
X98646290Y-101847780D01*
X98646293Y-101847790D01*
X98691820Y-101957701D01*
X98731595Y-102053726D01*
X98843052Y-102246774D01*
X98843057Y-102246780D01*
X98843058Y-102246782D01*
X98978751Y-102423622D01*
X98978757Y-102423629D01*
X99136370Y-102581242D01*
X99136376Y-102581247D01*
X99313226Y-102716948D01*
X99506274Y-102828405D01*
X99712219Y-102913710D01*
X99927537Y-102971404D01*
X100148543Y-103000500D01*
X100148550Y-103000500D01*
X100371450Y-103000500D01*
X100371457Y-103000500D01*
X100592463Y-102971404D01*
X100807781Y-102913710D01*
X101013726Y-102828405D01*
X101033285Y-102817112D01*
X101095284Y-102800500D01*
X104744207Y-102800500D01*
X104744223Y-102800499D01*
X104923338Y-102800499D01*
X104923344Y-102800499D01*
X104923352Y-102800498D01*
X104923355Y-102800498D01*
X104977760Y-102794940D01*
X105022708Y-102790349D01*
X105183697Y-102737003D01*
X105328044Y-102647968D01*
X105447968Y-102528044D01*
X105537003Y-102383697D01*
X105550601Y-102342657D01*
X105567987Y-102308781D01*
X105591232Y-102276788D01*
X105669873Y-102122445D01*
X105723402Y-101957701D01*
X105750500Y-101786611D01*
X105750500Y-101613389D01*
X105723402Y-101442299D01*
X105669873Y-101277555D01*
X105591232Y-101123212D01*
X105567984Y-101091214D01*
X105550601Y-101057341D01*
X105537003Y-101016303D01*
X105536999Y-101016297D01*
X105536998Y-101016294D01*
X105447970Y-100871959D01*
X105447967Y-100871955D01*
X105328044Y-100752032D01*
X105328040Y-100752029D01*
X105183705Y-100663001D01*
X105183699Y-100662998D01*
X105183697Y-100662997D01*
X105183694Y-100662996D01*
X105022709Y-100609651D01*
X104923352Y-100599500D01*
X104923345Y-100599500D01*
X104736613Y-100599500D01*
X104736611Y-100599500D01*
X101890727Y-100599500D01*
X101823688Y-100579815D01*
X101783340Y-100537501D01*
X101771514Y-100517018D01*
X101676948Y-100353226D01*
X101541247Y-100176376D01*
X101541242Y-100176370D01*
X101383629Y-100018757D01*
X101383622Y-100018751D01*
X101206782Y-99883058D01*
X101206780Y-99883057D01*
X101206774Y-99883052D01*
X101013726Y-99771595D01*
X101013722Y-99771593D01*
X100876034Y-99714561D01*
X100821631Y-99670720D01*
X100799566Y-99604426D01*
X100816845Y-99536727D01*
X100867982Y-99489116D01*
X100876034Y-99485439D01*
X100913768Y-99469808D01*
X101013726Y-99428405D01*
X101206774Y-99316948D01*
X101383624Y-99181247D01*
X101541247Y-99023624D01*
X101676948Y-98846774D01*
X101788405Y-98653726D01*
X101873710Y-98447781D01*
X101931404Y-98232463D01*
X101960500Y-98011457D01*
X101960500Y-97788543D01*
X101931404Y-97567537D01*
X101873710Y-97352219D01*
X101788405Y-97146274D01*
X101676948Y-96953226D01*
X101541247Y-96776376D01*
X101541242Y-96776370D01*
X101383629Y-96618757D01*
X101383622Y-96618751D01*
X101206782Y-96483058D01*
X101206780Y-96483057D01*
X101206774Y-96483052D01*
X101013726Y-96371595D01*
X101013722Y-96371593D01*
X100807790Y-96286293D01*
X100807783Y-96286291D01*
X100807781Y-96286290D01*
X100592463Y-96228596D01*
X100592457Y-96228595D01*
X100592452Y-96228594D01*
X100371466Y-96199501D01*
X100371463Y-96199500D01*
X100371457Y-96199500D01*
X100148543Y-96199500D01*
X100148537Y-96199500D01*
X100148533Y-96199501D01*
X99927547Y-96228594D01*
X99927540Y-96228595D01*
X99927537Y-96228596D01*
X99712219Y-96286290D01*
X99712209Y-96286293D01*
X99506277Y-96371593D01*
X99506273Y-96371595D01*
X99313226Y-96483052D01*
X99313217Y-96483058D01*
X99136377Y-96618751D01*
X99136370Y-96618757D01*
X98978757Y-96776370D01*
X98978751Y-96776377D01*
X98843058Y-96953217D01*
X98843052Y-96953226D01*
X98731595Y-97146273D01*
X98731593Y-97146277D01*
X98646293Y-97352209D01*
X98646290Y-97352219D01*
X98588597Y-97567534D01*
X98588594Y-97567547D01*
X98559501Y-97788533D01*
X98559500Y-97788549D01*
X96325587Y-97788549D01*
X96325609Y-97783887D01*
X96353218Y-92052135D01*
X113899500Y-92052135D01*
X113899500Y-95147870D01*
X113899501Y-95147876D01*
X113905908Y-95207483D01*
X113956202Y-95342328D01*
X113956206Y-95342335D01*
X114042452Y-95457544D01*
X114042455Y-95457547D01*
X114157664Y-95543793D01*
X114157671Y-95543797D01*
X114292517Y-95594091D01*
X114292516Y-95594091D01*
X114299444Y-95594835D01*
X114352127Y-95600500D01*
X117447872Y-95600499D01*
X117507483Y-95594091D01*
X117642331Y-95543796D01*
X117757546Y-95457546D01*
X117843796Y-95342331D01*
X117894091Y-95207483D01*
X117900500Y-95147873D01*
X117900499Y-92052128D01*
X117894091Y-91992517D01*
X117843796Y-91857669D01*
X117843795Y-91857668D01*
X117843793Y-91857664D01*
X117757547Y-91742455D01*
X117757544Y-91742452D01*
X117642335Y-91656206D01*
X117642328Y-91656202D01*
X117507482Y-91605908D01*
X117507483Y-91605908D01*
X117447883Y-91599501D01*
X117447881Y-91599500D01*
X117447873Y-91599500D01*
X117447864Y-91599500D01*
X114352129Y-91599500D01*
X114352123Y-91599501D01*
X114292516Y-91605908D01*
X114157671Y-91656202D01*
X114157664Y-91656206D01*
X114042455Y-91742452D01*
X114042452Y-91742455D01*
X113956206Y-91857664D01*
X113956202Y-91857671D01*
X113905908Y-91992517D01*
X113899921Y-92048209D01*
X113899501Y-92052123D01*
X113899500Y-92052135D01*
X96353218Y-92052135D01*
X96353237Y-92048209D01*
X96364578Y-89693793D01*
X96381397Y-86202135D01*
X99949500Y-86202135D01*
X99949500Y-89297870D01*
X99949501Y-89297876D01*
X99955908Y-89357483D01*
X100006202Y-89492328D01*
X100006206Y-89492335D01*
X100092452Y-89607544D01*
X100092455Y-89607547D01*
X100207664Y-89693793D01*
X100207671Y-89693797D01*
X100342517Y-89744091D01*
X100342516Y-89744091D01*
X100349444Y-89744835D01*
X100402127Y-89750500D01*
X103497872Y-89750499D01*
X103557483Y-89744091D01*
X103692331Y-89693796D01*
X103807546Y-89607546D01*
X103893796Y-89492331D01*
X103944091Y-89357483D01*
X103950500Y-89297873D01*
X103950499Y-86202128D01*
X103944091Y-86142517D01*
X103938942Y-86128711D01*
X113999500Y-86128711D01*
X113999500Y-86371288D01*
X114031161Y-86611785D01*
X114093947Y-86846104D01*
X114186773Y-87070205D01*
X114186776Y-87070212D01*
X114308064Y-87280289D01*
X114308066Y-87280292D01*
X114308067Y-87280293D01*
X114455733Y-87472736D01*
X114455739Y-87472743D01*
X114627256Y-87644260D01*
X114627262Y-87644265D01*
X114819711Y-87791936D01*
X115029788Y-87913224D01*
X115253900Y-88006054D01*
X115488211Y-88068838D01*
X115668586Y-88092584D01*
X115728711Y-88100500D01*
X115728712Y-88100500D01*
X115971289Y-88100500D01*
X116019388Y-88094167D01*
X116211789Y-88068838D01*
X116446100Y-88006054D01*
X116670212Y-87913224D01*
X116880289Y-87791936D01*
X117072738Y-87644265D01*
X117244265Y-87472738D01*
X117391936Y-87280289D01*
X117513224Y-87070212D01*
X117606054Y-86846100D01*
X117668838Y-86611789D01*
X117700500Y-86371288D01*
X117700500Y-86128712D01*
X117668838Y-85888211D01*
X117606054Y-85653900D01*
X117513224Y-85429788D01*
X117391936Y-85219711D01*
X117244265Y-85027262D01*
X117244260Y-85027256D01*
X117072743Y-84855739D01*
X117072736Y-84855733D01*
X116880293Y-84708067D01*
X116880292Y-84708066D01*
X116880289Y-84708064D01*
X116670212Y-84586776D01*
X116670205Y-84586773D01*
X116446104Y-84493947D01*
X116211785Y-84431161D01*
X115971289Y-84399500D01*
X115971288Y-84399500D01*
X115728712Y-84399500D01*
X115728711Y-84399500D01*
X115488214Y-84431161D01*
X115253895Y-84493947D01*
X115029794Y-84586773D01*
X115029785Y-84586777D01*
X114819706Y-84708067D01*
X114627263Y-84855733D01*
X114627256Y-84855739D01*
X114455739Y-85027256D01*
X114455733Y-85027263D01*
X114308067Y-85219706D01*
X114186777Y-85429785D01*
X114186773Y-85429794D01*
X114093947Y-85653895D01*
X114031161Y-85888214D01*
X113999500Y-86128711D01*
X103938942Y-86128711D01*
X103893796Y-86007669D01*
X103893795Y-86007668D01*
X103893793Y-86007664D01*
X103807547Y-85892455D01*
X103807544Y-85892452D01*
X103692335Y-85806206D01*
X103692328Y-85806202D01*
X103557482Y-85755908D01*
X103557483Y-85755908D01*
X103497883Y-85749501D01*
X103497881Y-85749500D01*
X103497873Y-85749500D01*
X103497864Y-85749500D01*
X100402129Y-85749500D01*
X100402123Y-85749501D01*
X100342516Y-85755908D01*
X100207671Y-85806202D01*
X100207664Y-85806206D01*
X100092455Y-85892452D01*
X100092452Y-85892455D01*
X100006206Y-86007664D01*
X100006202Y-86007671D01*
X99955908Y-86142517D01*
X99949501Y-86202116D01*
X99949500Y-86202135D01*
X96381397Y-86202135D01*
X96389928Y-84431161D01*
X96395021Y-83373903D01*
X96415029Y-83306959D01*
X96468052Y-83261459D01*
X96519020Y-83250500D01*
X116159108Y-83250500D01*
X116221754Y-83250500D01*
X116228244Y-83250670D01*
G37*
%TD.AperFunction*%
%TD*%
M02*
